<svg version="1.1" xmlns="http://www.w3.org/2000/svg" viewBox="0 0 800.9668922994567 530.4989720775036" width="2402.90067689837" height="1591.4969162325108">
  <!-- svg-source:excalidraw -->
  
  <defs>
    <style>
      @font-face {
        font-family: "Virgil";
        src: url("https://excalidraw.com/Virgil.woff2");
      }
      @font-face {
        font-family: "Cascadia";
        src: url("https://excalidraw.com/Cascadia.woff2");
      }
    </style>
  </defs>
  <g stroke-linecap="round"><g transform="translate(208.97948186294423 318.39998626708984) rotate(0 -0.04945751429349343 21.491909974645864)"><path d="M0 0 C-0.02 7.16, -0.08 35.82, -0.1 42.98 M0 0 C-0.02 7.16, -0.08 35.82, -0.1 42.98" stroke="#000000" stroke-width="2" fill="none"></path></g></g><g stroke-linecap="round" transform="translate(386.44930178969724 228.06293818961416) rotate(359.8657848032177 60.35676593570457 56.99545310376985)"><path d="M120.71 57 C120.71 59.29, 120.57 61.59, 120.27 63.87 C119.98 66.14, 119.54 68.41, 118.96 70.64 C118.38 72.86, 117.65 75.07, 116.79 77.21 C115.93 79.35, 114.93 81.45, 113.8 83.48 C112.67 85.51, 111.41 87.49, 110.03 89.37 C108.65 91.26, 107.14 93.08, 105.53 94.79 C103.93 96.5, 102.2 98.14, 100.38 99.66 C98.57 101.18, 96.64 102.6, 94.64 103.9 C92.65 105.2, 90.55 106.4, 88.41 107.46 C86.26 108.53, 84.03 109.48, 81.76 110.29 C79.49 111.1, 77.16 111.79, 74.8 112.33 C72.45 112.88, 70.04 113.3, 67.63 113.58 C65.22 113.85, 62.78 113.99, 60.36 113.99 C57.93 113.99, 55.49 113.85, 53.08 113.58 C50.67 113.3, 48.27 112.88, 45.91 112.33 C43.56 111.79, 41.22 111.1, 38.95 110.29 C36.69 109.48, 34.45 108.53, 32.31 107.46 C30.16 106.4, 28.07 105.2, 26.07 103.9 C24.07 102.6, 22.15 101.18, 20.33 99.66 C18.52 98.14, 16.79 96.5, 15.18 94.79 C13.57 93.08, 12.06 91.26, 10.68 89.37 C9.31 87.49, 8.04 85.51, 6.91 83.48 C5.79 81.45, 4.78 79.35, 3.92 77.21 C3.06 75.07, 2.33 72.86, 1.75 70.64 C1.17 68.41, 0.73 66.14, 0.44 63.87 C0.15 61.59, 0 59.29, 0 57 C0 54.71, 0.15 52.4, 0.44 50.13 C0.73 47.85, 1.17 45.58, 1.75 43.36 C2.33 41.13, 3.06 38.93, 3.92 36.78 C4.78 34.64, 5.79 32.54, 6.91 30.51 C8.04 28.48, 9.31 26.5, 10.68 24.62 C12.06 22.73, 13.57 20.91, 15.18 19.2 C16.79 17.49, 18.52 15.85, 20.33 14.33 C22.15 12.82, 24.07 11.39, 26.07 10.09 C28.07 8.79, 30.16 7.59, 32.31 6.53 C34.45 5.46, 36.69 4.52, 38.95 3.7 C41.22 2.89, 43.56 2.2, 45.91 1.66 C48.27 1.11, 50.67 0.69, 53.08 0.42 C55.49 0.14, 57.93 0, 60.36 0 C62.78 0, 65.22 0.14, 67.63 0.42 C70.04 0.69, 72.45 1.11, 74.8 1.66 C77.16 2.2, 79.49 2.89, 81.76 3.7 C84.03 4.52, 86.26 5.46, 88.41 6.53 C90.55 7.59, 92.65 8.79, 94.64 10.09 C96.64 11.39, 98.57 12.82, 100.38 14.33 C102.2 15.85, 103.93 17.49, 105.53 19.2 C107.14 20.91, 108.65 22.73, 110.03 24.62 C111.41 26.5, 112.67 28.48, 113.8 30.51 C114.93 32.54, 115.93 34.64, 116.79 36.78 C117.65 38.93, 118.38 41.13, 118.96 43.36 C119.54 45.58, 119.98 47.85, 120.27 50.13 C120.57 52.4, 120.71 54.71, 120.71 57" stroke="none" stroke-width="0" fill="#228be6"></path><path d="M120.71 57 C120.71 59.29, 120.57 61.59, 120.27 63.87 C119.98 66.14, 119.54 68.41, 118.96 70.64 C118.38 72.86, 117.65 75.07, 116.79 77.21 C115.93 79.35, 114.93 81.45, 113.8 83.48 C112.67 85.51, 111.41 87.49, 110.03 89.37 C108.65 91.26, 107.14 93.08, 105.53 94.79 C103.93 96.5, 102.2 98.14, 100.38 99.66 C98.57 101.18, 96.64 102.6, 94.64 103.9 C92.65 105.2, 90.55 106.4, 88.41 107.46 C86.26 108.53, 84.03 109.48, 81.76 110.29 C79.49 111.1, 77.16 111.79, 74.8 112.33 C72.45 112.88, 70.04 113.3, 67.63 113.58 C65.22 113.85, 62.78 113.99, 60.36 113.99 C57.93 113.99, 55.49 113.85, 53.08 113.58 C50.67 113.3, 48.27 112.88, 45.91 112.33 C43.56 111.79, 41.22 111.1, 38.95 110.29 C36.69 109.48, 34.45 108.53, 32.31 107.46 C30.16 106.4, 28.07 105.2, 26.07 103.9 C24.07 102.6, 22.15 101.18, 20.33 99.66 C18.52 98.14, 16.79 96.5, 15.18 94.79 C13.57 93.08, 12.06 91.26, 10.68 89.37 C9.31 87.49, 8.04 85.51, 6.91 83.48 C5.79 81.45, 4.78 79.35, 3.92 77.21 C3.06 75.07, 2.33 72.86, 1.75 70.64 C1.17 68.41, 0.73 66.14, 0.44 63.87 C0.15 61.59, 0 59.29, 0 57 C0 54.71, 0.15 52.4, 0.44 50.13 C0.73 47.85, 1.17 45.58, 1.75 43.36 C2.33 41.13, 3.06 38.93, 3.92 36.78 C4.78 34.64, 5.79 32.54, 6.91 30.51 C8.04 28.48, 9.31 26.5, 10.68 24.62 C12.06 22.73, 13.57 20.91, 15.18 19.2 C16.79 17.49, 18.52 15.85, 20.33 14.33 C22.15 12.82, 24.07 11.39, 26.07 10.09 C28.07 8.79, 30.16 7.59, 32.31 6.53 C34.45 5.46, 36.69 4.52, 38.95 3.7 C41.22 2.89, 43.56 2.2, 45.91 1.66 C48.27 1.11, 50.67 0.69, 53.08 0.42 C55.49 0.14, 57.93 0, 60.36 0 C62.78 0, 65.22 0.14, 67.63 0.42 C70.04 0.69, 72.45 1.11, 74.8 1.66 C77.16 2.2, 79.49 2.89, 81.76 3.7 C84.03 4.52, 86.26 5.46, 88.41 6.53 C90.55 7.59, 92.65 8.79, 94.64 10.09 C96.64 11.39, 98.57 12.82, 100.38 14.33 C102.2 15.85, 103.93 17.49, 105.53 19.2 C107.14 20.91, 108.65 22.73, 110.03 24.62 C111.41 26.5, 112.67 28.48, 113.8 30.51 C114.93 32.54, 115.93 34.64, 116.79 36.78 C117.65 38.93, 118.38 41.13, 118.96 43.36 C119.54 45.58, 119.98 47.85, 120.27 50.13 C120.57 52.4, 120.71 54.71, 120.71 57" stroke="#000000" stroke-width="4" fill="none"></path></g><g transform="translate(391.8589859776736 275.19998931884766) rotate(0 55 11.5)"><text x="0" y="19" font-family="Helvetica, Segoe UI Emoji" font-size="20px" fill="#ffff" text-anchor="start" style="white-space: pre;" direction="ltr">Report Field</text></g><g stroke-linecap="round"><g transform="translate(213.62324244081304 228.94349262842218) rotate(89.86292068755618 -0.7640580988814918 135.05653025976176)"><path d="M0 0 C-0.25 45.02, -1.27 225.09, -1.53 270.11 M0 0 C-0.25 45.02, -1.27 225.09, -1.53 270.11" stroke="#000000" stroke-width="4" fill="none"></path></g></g><g stroke-linecap="round" transform="translate(368.0591049962283 10) rotate(0 78 72.39999008178711)"><path d="M79 0 L156 73 L79 144.8 L0 73" stroke="none" stroke-width="0" fill="#12b886" fill-rule="evenodd"></path><path d="M79 0 C105.71 25.32, 132.41 50.64, 156 73 M79 0 C104.41 24.09, 129.83 48.19, 156 73 M156 73 C128.95 98.23, 101.89 123.45, 79 144.8 M156 73 C136.96 90.75, 117.92 108.51, 79 144.8 M79 144.8 C53.49 121.61, 27.97 98.42, 0 73 M79 144.8 C58.99 126.61, 38.97 108.42, 0 73 M0 73 C16.45 57.8, 32.91 42.59, 79 0 M0 73 C29.84 45.42, 59.69 17.85, 79 0" stroke="#000000" stroke-width="4" fill="none"></path></g><g transform="translate(373.0591049962283 70.89999008178711) rotate(0 73 11.5)"><text x="73" y="19" font-family="Helvetica, Segoe UI Emoji" font-size="20px" fill="#ffff" text-anchor="middle" style="white-space: pre;" direction="ltr">Report</text></g><g stroke-linecap="round" transform="translate(145.6590805821658 234.9999771118164) rotate(0 67.20001220703125 41.20000457763672)"><path d="M0 0 L134.4 0 L134.4 82.4 L0 82.4" stroke="none" stroke-width="0" fill="#228be6"></path><path d="M0 0 C38.01 0, 76.02 0, 134.4 0 M0 0 C51.18 0, 102.36 0, 134.4 0 M134.4 0 C134.4 30.36, 134.4 60.73, 134.4 82.4 M134.4 0 C134.4 19.16, 134.4 38.32, 134.4 82.4 M134.4 82.4 C106.06 82.4, 77.72 82.4, 0 82.4 M134.4 82.4 C92.36 82.4, 50.32 82.4, 0 82.4 M0 82.4 C0 61.89, 0 41.39, 0 0 M0 82.4 C0 54.94, 0 27.47, 0 0" stroke="#000000" stroke-width="4" fill="none"></path></g><g stroke-linecap="round"><g transform="translate(347.25911720325956 365.99999237060547) rotate(0 0 15.200027465820312)"><path d="M0 0 C0 5.07, 0 25.33, 0 30.4 M0 0 C0 5.07, 0 25.33, 0 30.4" stroke="#000000" stroke-width="4" fill="none"></path></g></g><g stroke-linecap="round"><g transform="translate(77.65914161732206 364.4000473022461) rotate(0 0.399993896484375 16)"><path d="M0 0 C0.13 5.33, 0.67 26.67, 0.8 32 M0 0 C0.13 5.33, 0.67 26.67, 0.8 32" stroke="#000000" stroke-width="4" fill="none"></path></g></g><g transform="translate(157.40038576512762 268.241127911736) rotate(0 51.5 11.5)"><text x="0" y="19" font-family="Helvetica, Segoe UI Emoji" font-size="20px" fill="#ffffff" text-anchor="start" style="white-space: pre;" direction="ltr"> Report List</text></g><g stroke-linecap="round" transform="translate(9.999966735399369 394.70097002278953) rotate(359.8657848032177 67.85912605379787 61.49894300211281)"><path d="M135.72 61.5 C135.72 63.97, 135.55 66.46, 135.22 68.91 C134.89 71.36, 134.4 73.82, 133.75 76.22 C133.09 78.62, 132.28 81, 131.31 83.31 C130.34 85.62, 129.21 87.89, 127.95 90.08 C126.68 92.27, 125.25 94.4, 123.71 96.43 C122.16 98.47, 120.46 100.43, 118.65 102.28 C116.84 104.13, 114.9 105.89, 112.86 107.53 C110.82 109.17, 108.65 110.71, 106.41 112.11 C104.16 113.52, 101.81 114.81, 99.39 115.95 C96.98 117.1, 94.47 118.13, 91.92 119 C89.37 119.88, 86.75 120.62, 84.1 121.21 C81.45 121.8, 78.75 122.25, 76.04 122.55 C73.33 122.85, 70.59 123, 67.86 123 C65.13 123, 62.39 122.85, 59.68 122.55 C56.97 122.25, 54.27 121.8, 51.62 121.21 C48.97 120.62, 46.35 119.88, 43.8 119 C41.25 118.13, 38.74 117.1, 36.32 115.95 C33.91 114.81, 31.55 113.52, 29.31 112.11 C27.07 110.71, 24.9 109.17, 22.86 107.53 C20.82 105.89, 18.87 104.13, 17.07 102.28 C15.26 100.43, 13.56 98.47, 12.01 96.43 C10.46 94.4, 9.04 92.27, 7.77 90.08 C6.51 87.89, 5.38 85.62, 4.41 83.31 C3.44 81, 2.62 78.62, 1.97 76.22 C1.32 73.82, 0.82 71.36, 0.49 68.91 C0.17 66.46, 0 63.97, 0 61.5 C0 59.03, 0.17 56.54, 0.49 54.09 C0.82 51.63, 1.32 49.18, 1.97 46.78 C2.62 44.38, 3.44 42, 4.41 39.69 C5.38 37.38, 6.51 35.11, 7.77 32.92 C9.04 30.73, 10.46 28.6, 12.01 26.56 C13.56 24.53, 15.26 22.57, 17.07 20.72 C18.87 18.87, 20.82 17.1, 22.86 15.47 C24.9 13.83, 27.07 12.29, 29.31 10.89 C31.55 9.48, 33.91 8.19, 36.32 7.04 C38.74 5.9, 41.25 4.87, 43.8 4 C46.35 3.12, 48.97 2.38, 51.62 1.79 C54.27 1.2, 56.97 0.75, 59.68 0.45 C62.39 0.15, 65.13 0, 67.86 0 C70.59 0, 73.33 0.15, 76.04 0.45 C78.75 0.75, 81.45 1.2, 84.1 1.79 C86.75 2.38, 89.37 3.12, 91.92 4 C94.47 4.87, 96.98 5.9, 99.39 7.04 C101.81 8.19, 104.16 9.48, 106.41 10.89 C108.65 12.29, 110.82 13.83, 112.86 15.47 C114.9 17.1, 116.84 18.87, 118.65 20.72 C120.46 22.57, 122.16 24.53, 123.71 26.56 C125.25 28.6, 126.68 30.73, 127.95 32.92 C129.21 35.11, 130.34 37.38, 131.31 39.69 C132.28 42, 133.09 44.38, 133.75 46.78 C134.4 49.18, 134.89 51.63, 135.22 54.09 C135.55 56.54, 135.72 59.03, 135.72 61.5" stroke="none" stroke-width="0" fill="#fa5252"></path><path d="M135.72 61.5 C135.72 63.97, 135.55 66.46, 135.22 68.91 C134.89 71.36, 134.4 73.82, 133.75 76.22 C133.09 78.62, 132.28 81, 131.31 83.31 C130.34 85.62, 129.21 87.89, 127.95 90.08 C126.68 92.27, 125.25 94.4, 123.71 96.43 C122.16 98.47, 120.46 100.43, 118.65 102.28 C116.84 104.13, 114.9 105.89, 112.86 107.53 C110.82 109.17, 108.65 110.71, 106.41 112.11 C104.16 113.52, 101.81 114.81, 99.39 115.95 C96.98 117.1, 94.47 118.13, 91.92 119 C89.37 119.88, 86.75 120.62, 84.1 121.21 C81.45 121.8, 78.75 122.25, 76.04 122.55 C73.33 122.85, 70.59 123, 67.86 123 C65.13 123, 62.39 122.85, 59.68 122.55 C56.97 122.25, 54.27 121.8, 51.62 121.21 C48.97 120.62, 46.35 119.88, 43.8 119 C41.25 118.13, 38.74 117.1, 36.32 115.95 C33.91 114.81, 31.55 113.52, 29.31 112.11 C27.07 110.71, 24.9 109.17, 22.86 107.53 C20.82 105.89, 18.87 104.13, 17.07 102.28 C15.26 100.43, 13.56 98.47, 12.01 96.43 C10.46 94.4, 9.04 92.27, 7.77 90.08 C6.51 87.89, 5.38 85.62, 4.41 83.31 C3.44 81, 2.62 78.62, 1.97 76.22 C1.32 73.82, 0.82 71.36, 0.49 68.91 C0.17 66.46, 0 63.97, 0 61.5 C0 59.03, 0.17 56.54, 0.49 54.09 C0.82 51.63, 1.32 49.18, 1.97 46.78 C2.62 44.38, 3.44 42, 4.41 39.69 C5.38 37.38, 6.51 35.11, 7.77 32.92 C9.04 30.73, 10.46 28.6, 12.01 26.56 C13.56 24.53, 15.26 22.57, 17.07 20.72 C18.87 18.87, 20.82 17.1, 22.86 15.47 C24.9 13.83, 27.07 12.29, 29.31 10.89 C31.55 9.48, 33.91 8.19, 36.32 7.04 C38.74 5.9, 41.25 4.87, 43.8 4 C46.35 3.12, 48.97 2.38, 51.62 1.79 C54.27 1.2, 56.97 0.75, 59.68 0.45 C62.39 0.15, 65.13 0, 67.86 0 C70.59 0, 73.33 0.15, 76.04 0.45 C78.75 0.75, 81.45 1.2, 84.1 1.79 C86.75 2.38, 89.37 3.12, 91.92 4 C94.47 4.87, 96.98 5.9, 99.39 7.04 C101.81 8.19, 104.16 9.48, 106.41 10.89 C108.65 12.29, 110.82 13.83, 112.86 15.47 C114.9 17.1, 116.84 18.87, 118.65 20.72 C120.46 22.57, 122.16 24.53, 123.71 26.56 C125.25 28.6, 126.68 30.73, 127.95 32.92 C129.21 35.11, 130.34 37.38, 131.31 39.69 C132.28 42, 133.09 44.38, 133.75 46.78 C134.4 49.18, 134.89 51.63, 135.22 54.09 C135.55 56.54, 135.72 59.03, 135.72 61.5" stroke="#000000" stroke-width="4" fill="none"></path></g><g stroke-linecap="round" transform="translate(278.400052184618 397.50104936849266) rotate(359.8657848032177 67.85912605379787 61.49894300211281)"><path d="M135.72 61.5 C135.72 63.97, 135.55 66.46, 135.22 68.91 C134.89 71.36, 134.4 73.82, 133.75 76.22 C133.09 78.62, 132.28 81, 131.31 83.31 C130.34 85.62, 129.21 87.89, 127.95 90.08 C126.68 92.27, 125.25 94.4, 123.71 96.43 C122.16 98.47, 120.46 100.43, 118.65 102.28 C116.84 104.13, 114.9 105.89, 112.86 107.53 C110.82 109.17, 108.65 110.71, 106.41 112.11 C104.16 113.52, 101.81 114.81, 99.39 115.95 C96.98 117.1, 94.47 118.13, 91.92 119 C89.37 119.88, 86.75 120.62, 84.1 121.21 C81.45 121.8, 78.75 122.25, 76.04 122.55 C73.33 122.85, 70.59 123, 67.86 123 C65.13 123, 62.39 122.85, 59.68 122.55 C56.97 122.25, 54.27 121.8, 51.62 121.21 C48.97 120.62, 46.35 119.88, 43.8 119 C41.25 118.13, 38.74 117.1, 36.32 115.95 C33.91 114.81, 31.55 113.52, 29.31 112.11 C27.07 110.71, 24.9 109.17, 22.86 107.53 C20.82 105.89, 18.87 104.13, 17.07 102.28 C15.26 100.43, 13.56 98.47, 12.01 96.43 C10.46 94.4, 9.04 92.27, 7.77 90.08 C6.51 87.89, 5.38 85.62, 4.41 83.31 C3.44 81, 2.62 78.62, 1.97 76.22 C1.32 73.82, 0.82 71.36, 0.49 68.91 C0.17 66.46, 0 63.97, 0 61.5 C0 59.03, 0.17 56.54, 0.49 54.09 C0.82 51.63, 1.32 49.18, 1.97 46.78 C2.62 44.38, 3.44 42, 4.41 39.69 C5.38 37.38, 6.51 35.11, 7.77 32.92 C9.04 30.73, 10.46 28.6, 12.01 26.56 C13.56 24.53, 15.26 22.57, 17.07 20.72 C18.87 18.87, 20.82 17.1, 22.86 15.47 C24.9 13.83, 27.07 12.29, 29.31 10.89 C31.55 9.48, 33.91 8.19, 36.32 7.04 C38.74 5.9, 41.25 4.87, 43.8 4 C46.35 3.12, 48.97 2.38, 51.62 1.79 C54.27 1.2, 56.97 0.75, 59.68 0.45 C62.39 0.15, 65.13 0, 67.86 0 C70.59 0, 73.33 0.15, 76.04 0.45 C78.75 0.75, 81.45 1.2, 84.1 1.79 C86.75 2.38, 89.37 3.12, 91.92 4 C94.47 4.87, 96.98 5.9, 99.39 7.04 C101.81 8.19, 104.16 9.48, 106.41 10.89 C108.65 12.29, 110.82 13.83, 112.86 15.47 C114.9 17.1, 116.84 18.87, 118.65 20.72 C120.46 22.57, 122.16 24.53, 123.71 26.56 C125.25 28.6, 126.68 30.73, 127.95 32.92 C129.21 35.11, 130.34 37.38, 131.31 39.69 C132.28 42, 133.09 44.38, 133.75 46.78 C134.4 49.18, 134.89 51.63, 135.22 54.09 C135.55 56.54, 135.72 59.03, 135.72 61.5" stroke="none" stroke-width="0" fill="#fa5252"></path><path d="M135.72 61.5 C135.72 63.97, 135.55 66.46, 135.22 68.91 C134.89 71.36, 134.4 73.82, 133.75 76.22 C133.09 78.62, 132.28 81, 131.31 83.31 C130.34 85.62, 129.21 87.89, 127.95 90.08 C126.68 92.27, 125.25 94.4, 123.71 96.43 C122.16 98.47, 120.46 100.43, 118.65 102.28 C116.84 104.13, 114.9 105.89, 112.86 107.53 C110.82 109.17, 108.65 110.71, 106.41 112.11 C104.16 113.52, 101.81 114.81, 99.39 115.95 C96.98 117.1, 94.47 118.13, 91.92 119 C89.37 119.88, 86.75 120.62, 84.1 121.21 C81.45 121.8, 78.75 122.25, 76.04 122.55 C73.33 122.85, 70.59 123, 67.86 123 C65.13 123, 62.39 122.85, 59.68 122.55 C56.97 122.25, 54.27 121.8, 51.62 121.21 C48.97 120.62, 46.35 119.88, 43.8 119 C41.25 118.13, 38.74 117.1, 36.32 115.95 C33.91 114.81, 31.55 113.52, 29.31 112.11 C27.07 110.71, 24.9 109.17, 22.86 107.53 C20.82 105.89, 18.87 104.13, 17.07 102.28 C15.26 100.43, 13.56 98.47, 12.01 96.43 C10.46 94.4, 9.04 92.27, 7.77 90.08 C6.51 87.89, 5.38 85.62, 4.41 83.31 C3.44 81, 2.62 78.62, 1.97 76.22 C1.32 73.82, 0.82 71.36, 0.49 68.91 C0.17 66.46, 0 63.97, 0 61.5 C0 59.03, 0.17 56.54, 0.49 54.09 C0.82 51.63, 1.32 49.18, 1.97 46.78 C2.62 44.38, 3.44 42, 4.41 39.69 C5.38 37.38, 6.51 35.11, 7.77 32.92 C9.04 30.73, 10.46 28.6, 12.01 26.56 C13.56 24.53, 15.26 22.57, 17.07 20.72 C18.87 18.87, 20.82 17.1, 22.86 15.47 C24.9 13.83, 27.07 12.29, 29.31 10.89 C31.55 9.48, 33.91 8.19, 36.32 7.04 C38.74 5.9, 41.25 4.87, 43.8 4 C46.35 3.12, 48.97 2.38, 51.62 1.79 C54.27 1.2, 56.97 0.75, 59.68 0.45 C62.39 0.15, 65.13 0, 67.86 0 C70.59 0, 73.33 0.15, 76.04 0.45 C78.75 0.75, 81.45 1.2, 84.1 1.79 C86.75 2.38, 89.37 3.12, 91.92 4 C94.47 4.87, 96.98 5.9, 99.39 7.04 C101.81 8.19, 104.16 9.48, 106.41 10.89 C108.65 12.29, 110.82 13.83, 112.86 15.47 C114.9 17.1, 116.84 18.87, 118.65 20.72 C120.46 22.57, 122.16 24.53, 123.71 26.56 C125.25 28.6, 126.68 30.73, 127.95 32.92 C129.21 35.11, 130.34 37.38, 131.31 39.69 C132.28 42, 133.09 44.38, 133.75 46.78 C134.4 49.18, 134.89 51.63, 135.22 54.09 C135.55 56.54, 135.72 59.03, 135.72 61.5" stroke="#000000" stroke-width="4" fill="none"></path></g><g transform="translate(306.75908668568144 446.6999740600586) rotate(0 40.5 11.5)"><text x="0" y="19" font-family="Helvetica, Segoe UI Emoji" font-size="20px" fill="#ffffff" text-anchor="start" style="white-space: pre;" direction="ltr">List Field</text></g><g transform="translate(35.75914772083769 445.1000289916992) rotate(0 40.5 11.5)"><text x="0" y="19" font-family="Helvetica, Segoe UI Emoji" font-size="20px" fill="#ffff" text-anchor="start" style="white-space: pre;" direction="ltr">List Field</text></g><g stroke-linecap="round" transform="translate(694.4332688509244 247.0575501921553) rotate(349.49460188942567 28.405699134348822 27.875079781540137)"><path d="M56.81 27.88 C56.81 29.49, 56.67 31.13, 56.38 32.72 C56.09 34.3, 55.66 35.89, 55.1 37.41 C54.54 38.93, 53.83 40.42, 53.01 41.81 C52.18 43.21, 51.22 44.56, 50.17 45.79 C49.11 47.03, 47.92 48.19, 46.66 49.23 C45.41 50.27, 44.03 51.21, 42.61 52.02 C41.18 52.82, 39.67 53.52, 38.12 54.07 C36.58 54.62, 34.96 55.05, 33.34 55.33 C31.72 55.61, 30.05 55.75, 28.41 55.75 C26.76 55.75, 25.09 55.61, 23.47 55.33 C21.85 55.05, 20.24 54.62, 18.69 54.07 C17.15 53.52, 15.63 52.82, 14.2 52.02 C12.78 51.21, 11.41 50.27, 10.15 49.23 C8.89 48.19, 7.7 47.03, 6.65 45.79 C5.59 44.56, 4.63 43.21, 3.81 41.81 C2.98 40.42, 2.28 38.93, 1.71 37.41 C1.15 35.89, 0.72 34.3, 0.43 32.72 C0.15 31.13, 0 29.49, 0 27.88 C0 26.26, 0.15 24.62, 0.43 23.03 C0.72 21.45, 1.15 19.86, 1.71 18.34 C2.28 16.83, 2.98 15.33, 3.81 13.94 C4.63 12.54, 5.59 11.19, 6.65 9.96 C7.7 8.72, 8.89 7.56, 10.15 6.52 C11.41 5.48, 12.78 4.54, 14.2 3.73 C15.63 2.93, 17.15 2.23, 18.69 1.68 C20.24 1.13, 21.85 0.7, 23.47 0.42 C25.09 0.14, 26.76 0, 28.41 0 C30.05 0, 31.72 0.14, 33.34 0.42 C34.96 0.7, 36.58 1.13, 38.12 1.68 C39.67 2.23, 41.18 2.93, 42.61 3.73 C44.03 4.54, 45.41 5.48, 46.66 6.52 C47.92 7.56, 49.11 8.72, 50.17 9.96 C51.22 11.19, 52.18 12.54, 53.01 13.94 C53.83 15.33, 54.54 16.83, 55.1 18.34 C55.66 19.86, 56.09 21.45, 56.38 23.03 C56.67 24.62, 56.74 27.07, 56.81 27.88 C56.88 28.68, 56.88 27.07, 56.81 27.88" stroke="none" stroke-width="0" fill="#bfc548"></path><path d="M56.81 27.88 C56.81 29.49, 56.67 31.13, 56.38 32.72 C56.09 34.3, 55.66 35.89, 55.1 37.41 C54.54 38.93, 53.83 40.42, 53.01 41.81 C52.18 43.21, 51.22 44.56, 50.17 45.79 C49.11 47.03, 47.92 48.19, 46.66 49.23 C45.41 50.27, 44.03 51.21, 42.61 52.02 C41.18 52.82, 39.67 53.52, 38.12 54.07 C36.58 54.62, 34.96 55.05, 33.34 55.33 C31.72 55.61, 30.05 55.75, 28.41 55.75 C26.76 55.75, 25.09 55.61, 23.47 55.33 C21.85 55.05, 20.24 54.62, 18.69 54.07 C17.15 53.52, 15.63 52.82, 14.2 52.02 C12.78 51.21, 11.41 50.27, 10.15 49.23 C8.89 48.19, 7.7 47.03, 6.65 45.79 C5.59 44.56, 4.63 43.21, 3.81 41.81 C2.98 40.42, 2.28 38.93, 1.71 37.41 C1.15 35.89, 0.72 34.3, 0.43 32.72 C0.15 31.13, 0 29.49, 0 27.88 C0 26.26, 0.15 24.62, 0.43 23.03 C0.72 21.45, 1.15 19.86, 1.71 18.34 C2.28 16.83, 2.98 15.33, 3.81 13.94 C4.63 12.54, 5.59 11.19, 6.65 9.96 C7.7 8.72, 8.89 7.56, 10.15 6.52 C11.41 5.48, 12.78 4.54, 14.2 3.73 C15.63 2.93, 17.15 2.23, 18.69 1.68 C20.24 1.13, 21.85 0.7, 23.47 0.42 C25.09 0.14, 26.76 0, 28.41 0 C30.05 0, 31.72 0.14, 33.34 0.42 C34.96 0.7, 36.58 1.13, 38.12 1.68 C39.67 2.23, 41.18 2.93, 42.61 3.73 C44.03 4.54, 45.41 5.48, 46.66 6.52 C47.92 7.56, 49.11 8.72, 50.17 9.96 C51.22 11.19, 52.18 12.54, 53.01 13.94 C53.83 15.33, 54.54 16.83, 55.1 18.34 C55.66 19.86, 56.09 21.45, 56.38 23.03 C56.67 24.62, 56.74 27.07, 56.81 27.88 C56.88 28.68, 56.88 27.07, 56.81 27.88" stroke="#bfc548" stroke-width="1" fill="none"></path></g><g stroke-linecap="round"><g transform="translate(705.2391640385329 294.3239984018491) rotate(349.49460188942567 22.0582542701452 -17.96022334626369)" fill-rule="evenodd"><path d="M-0.6 -4.14 L-0.46 -3.61 L-5.06 -10.64 L-5.39 -17.59 L-2.99 -22.44 L1.84 -26.38 L11.2 -28.82 L34.33 -25.69 L38.73 -26.31 L42.01 -27.69 L46.91 -31.55 L49.72 -36.87 L48.16 -24.1 L44.36 -15.69 L36.56 -7.69 L29.85 -3.37 L22.47 0.03 L15.54 1.13 L9.18 0.73 L3.56 -1.33 L-1.12 -4.12 L-0.6 -4.14" stroke="none" stroke-width="0" fill="#ffffff" fill-rule="evenodd"></path><path d="M-0.6 -4.14 C-0.64 -4.1, -0.1 -2.83, -0.84 -3.92 C-1.58 -5, -4.3 -8.37, -5.06 -10.64 C-5.82 -12.92, -5.73 -15.62, -5.39 -17.59 C-5.04 -19.55, -4.2 -20.97, -2.99 -22.44 C-1.79 -23.9, -0.52 -25.32, 1.84 -26.38 C4.21 -27.44, 8.1 -28.54, 11.2 -28.82 C14.31 -29.09, 16.64 -28.54, 20.49 -28.02 C24.35 -27.5, 30.74 -25.75, 34.33 -25.69 C37.92 -25.64, 39.91 -26.72, 42.01 -27.69 C44.11 -28.67, 45.63 -30.02, 46.91 -31.55 C48.2 -33.08, 49.52 -38.11, 49.72 -36.87 C49.93 -35.63, 49.06 -27.63, 48.16 -24.1 C47.27 -20.57, 46.29 -18.43, 44.36 -15.69 C42.43 -12.96, 40.21 -10.31, 36.56 -7.69 C32.91 -5.07, 27.03 -1.37, 22.47 0.03 C17.9 1.44, 13 1.32, 9.18 0.73 C5.37 0.13, 1.2 -2.74, -0.43 -3.56 C-2.06 -4.37, -0.58 -4.04, -0.6 -4.14 M-0.6 -4.14 C-0.64 -4.1, -0.1 -2.83, -0.84 -3.92 C-1.58 -5, -4.3 -8.37, -5.06 -10.64 C-5.82 -12.92, -5.73 -15.62, -5.39 -17.59 C-5.04 -19.55, -4.2 -20.97, -2.99 -22.44 C-1.79 -23.9, -0.52 -25.32, 1.84 -26.38 C4.21 -27.44, 8.1 -28.54, 11.2 -28.82 C14.31 -29.09, 16.64 -28.54, 20.49 -28.02 C24.35 -27.5, 30.74 -25.75, 34.33 -25.69 C37.92 -25.64, 39.91 -26.72, 42.01 -27.69 C44.11 -28.67, 45.63 -30.02, 46.91 -31.55 C48.2 -33.08, 49.52 -38.11, 49.72 -36.87 C49.93 -35.63, 49.06 -27.63, 48.16 -24.1 C47.27 -20.57, 46.29 -18.43, 44.36 -15.69 C42.43 -12.96, 40.21 -10.31, 36.56 -7.69 C32.91 -5.07, 27.03 -1.37, 22.47 0.03 C17.9 1.44, 13 1.32, 9.18 0.73 C5.37 0.13, 1.2 -2.74, -0.43 -3.56 C-2.06 -4.37, -0.58 -4.04, -0.6 -4.14" stroke="#82c91e" stroke-width="1" fill="none"></path></g></g><g stroke-linecap="round"><g transform="translate(710.0828121490067 289.71010081506785) rotate(349.49460188942567 14.19904242740887 -6.561756904872084)" fill-rule="evenodd"><path d="M-0.77 -1.7 L8.34 -2.41 L16.87 -4.11 L25.48 -7.19 L31.92 -11.25 L35.06 -15.17 L35.02 -14.02 L32.17 -9.65 L28.25 -5.62 L22.9 -2.22 L9.22 1.53 L2.59 1.97 L-3.7 1.72 L-6.04 0.13 L-6.84 -1.47 L-0.77 -1.7" stroke="none" stroke-width="0" fill="#82c91e" fill-rule="evenodd"></path><path d="M-0.77 -1.7 C-0.1 -1.76, 1.7 -1.92, 3.22 -2.03 C4.74 -2.15, 6.06 -2.06, 8.34 -2.41 C10.61 -2.75, 14.01 -3.31, 16.87 -4.11 C19.72 -4.91, 23.33 -6.22, 25.48 -7.19 C27.62 -8.15, 28.64 -9.23, 29.72 -9.91 C30.79 -10.59, 31.27 -10.69, 31.92 -11.25 C32.57 -11.82, 33.09 -12.66, 33.61 -13.32 C34.13 -13.97, 34.82 -15.06, 35.06 -15.17 C35.29 -15.29, 35.5 -14.94, 35.02 -14.02 C34.54 -13.1, 32.8 -10.53, 32.17 -9.65 C31.55 -8.78, 31.57 -9.07, 31.26 -8.75 C30.95 -8.43, 30.82 -8.25, 30.31 -7.73 C29.81 -7.21, 29.48 -6.54, 28.25 -5.62 C27.01 -4.7, 24.99 -3.18, 22.9 -2.22 C20.81 -1.25, 17.97 -0.45, 15.69 0.17 C13.41 0.8, 11.4 1.23, 9.22 1.53 C7.04 1.83, 4.75 1.94, 2.59 1.97 C0.44 2, -2.13 2.3, -3.7 1.72 C-5.27 1.15, -7.32 -0.9, -6.84 -1.47 C-6.35 -2.04, -1.78 -1.67, -0.77 -1.7 M-0.77 -1.7 C-0.1 -1.76, 1.7 -1.92, 3.22 -2.03 C4.74 -2.15, 6.06 -2.06, 8.34 -2.41 C10.61 -2.75, 14.01 -3.31, 16.87 -4.11 C19.72 -4.91, 23.33 -6.22, 25.48 -7.19 C27.62 -8.15, 28.64 -9.23, 29.72 -9.91 C30.79 -10.59, 31.27 -10.69, 31.92 -11.25 C32.57 -11.82, 33.09 -12.66, 33.61 -13.32 C34.13 -13.97, 34.82 -15.06, 35.06 -15.17 C35.29 -15.29, 35.5 -14.94, 35.02 -14.02 C34.54 -13.1, 32.8 -10.53, 32.17 -9.65 C31.55 -8.78, 31.57 -9.07, 31.26 -8.75 C30.95 -8.43, 30.82 -8.25, 30.31 -7.73 C29.81 -7.21, 29.48 -6.54, 28.25 -5.62 C27.01 -4.7, 24.99 -3.18, 22.9 -2.22 C20.81 -1.25, 17.97 -0.45, 15.69 0.17 C13.41 0.8, 11.4 1.23, 9.22 1.53 C7.04 1.83, 4.75 1.94, 2.59 1.97 C0.44 2, -2.13 2.3, -3.7 1.72 C-5.27 1.15, -7.32 -0.9, -6.84 -1.47 C-6.35 -2.04, -1.78 -1.67, -0.77 -1.7" stroke="#82c91e" stroke-width="1" fill="none"></path></g></g><g stroke-linecap="round" transform="translate(701.573299329367 291.5720173613825) rotate(349.49460188942567 2.114549177230117 2.0403652252309996)"><path d="M4.23 2.04 C4.23 2.16, 4.22 2.28, 4.2 2.39 C4.18 2.51, 4.14 2.63, 4.1 2.74 C4.06 2.85, 4.01 2.96, 3.95 3.06 C3.88 3.16, 3.81 3.26, 3.73 3.35 C3.66 3.44, 3.57 3.53, 3.47 3.6 C3.38 3.68, 3.28 3.75, 3.17 3.81 C3.07 3.87, 2.95 3.92, 2.84 3.96 C2.72 4, 2.6 4.03, 2.48 4.05 C2.36 4.07, 2.24 4.08, 2.11 4.08 C1.99 4.08, 1.87 4.07, 1.75 4.05 C1.63 4.03, 1.51 4, 1.39 3.96 C1.28 3.92, 1.16 3.87, 1.06 3.81 C0.95 3.75, 0.85 3.68, 0.76 3.6 C0.66 3.53, 0.57 3.44, 0.49 3.35 C0.42 3.26, 0.34 3.16, 0.28 3.06 C0.22 2.96, 0.17 2.85, 0.13 2.74 C0.09 2.63, 0.05 2.51, 0.03 2.39 C0.01 2.28, 0 2.16, 0 2.04 C0 1.92, 0.01 1.8, 0.03 1.69 C0.05 1.57, 0.09 1.45, 0.13 1.34 C0.17 1.23, 0.22 1.12, 0.28 1.02 C0.34 0.92, 0.42 0.82, 0.49 0.73 C0.57 0.64, 0.66 0.55, 0.76 0.48 C0.85 0.4, 0.95 0.33, 1.06 0.27 C1.16 0.21, 1.28 0.16, 1.39 0.12 C1.51 0.08, 1.63 0.05, 1.75 0.03 C1.87 0.01, 1.99 0, 2.11 0 C2.24 0, 2.36 0.01, 2.48 0.03 C2.6 0.05, 2.72 0.08, 2.84 0.12 C2.95 0.16, 3.07 0.21, 3.17 0.27 C3.28 0.33, 3.38 0.4, 3.47 0.48 C3.57 0.55, 3.66 0.64, 3.73 0.73 C3.81 0.82, 3.88 0.92, 3.95 1.02 C4.01 1.12, 4.06 1.23, 4.1 1.34 C4.14 1.45, 4.18 1.57, 4.2 1.69 C4.22 1.8, 4.22 1.98, 4.23 2.04 C4.23 2.1, 4.23 1.98, 4.23 2.04" stroke="none" stroke-width="0" fill="#ffffff"></path><path d="M4.23 2.04 C4.23 2.16, 4.22 2.28, 4.2 2.39 C4.18 2.51, 4.14 2.63, 4.1 2.74 C4.06 2.85, 4.01 2.96, 3.95 3.06 C3.88 3.16, 3.81 3.26, 3.73 3.35 C3.66 3.44, 3.57 3.53, 3.47 3.6 C3.38 3.68, 3.28 3.75, 3.17 3.81 C3.07 3.87, 2.95 3.92, 2.84 3.96 C2.72 4, 2.6 4.03, 2.48 4.05 C2.36 4.07, 2.24 4.08, 2.11 4.08 C1.99 4.08, 1.87 4.07, 1.75 4.05 C1.63 4.03, 1.51 4, 1.39 3.96 C1.28 3.92, 1.16 3.87, 1.06 3.81 C0.95 3.75, 0.85 3.68, 0.76 3.6 C0.66 3.53, 0.57 3.44, 0.49 3.35 C0.42 3.26, 0.34 3.16, 0.28 3.06 C0.22 2.96, 0.17 2.85, 0.13 2.74 C0.09 2.63, 0.05 2.51, 0.03 2.39 C0.01 2.28, 0 2.16, 0 2.04 C0 1.92, 0.01 1.8, 0.03 1.69 C0.05 1.57, 0.09 1.45, 0.13 1.34 C0.17 1.23, 0.22 1.12, 0.28 1.02 C0.34 0.92, 0.42 0.82, 0.49 0.73 C0.57 0.64, 0.66 0.55, 0.76 0.48 C0.85 0.4, 0.95 0.33, 1.06 0.27 C1.16 0.21, 1.28 0.16, 1.39 0.12 C1.51 0.08, 1.63 0.05, 1.75 0.03 C1.87 0.01, 1.99 0, 2.11 0 C2.24 0, 2.36 0.01, 2.48 0.03 C2.6 0.05, 2.72 0.08, 2.84 0.12 C2.95 0.16, 3.07 0.21, 3.17 0.27 C3.28 0.33, 3.38 0.4, 3.47 0.48 C3.57 0.55, 3.66 0.64, 3.73 0.73 C3.81 0.82, 3.88 0.92, 3.95 1.02 C4.01 1.12, 4.06 1.23, 4.1 1.34 C4.14 1.45, 4.18 1.57, 4.2 1.69 C4.22 1.8, 4.22 1.98, 4.23 2.04 C4.23 2.1, 4.23 1.98, 4.23 2.04" stroke="#82c91e" stroke-width="1" fill="none"></path></g><g stroke-linecap="round"><g transform="translate(752.1116540813946 226.36300058396824) rotate(0 12.31536975162419 11.717687252244247)" fill-rule="evenodd"><path d="M0 0 L1.14 16.45 L3.16 20.73 L7.78 22.6 L13.45 23.17 L20.17 23.43 L24.63 22.38 L22.05 18.8 L7.75 5.92 L0 0" stroke="none" stroke-width="0" fill="#e64980" fill-rule="evenodd"></path><path d="M0 0 C0.06 1.85, -0.16 7.63, 0.37 11.08 C0.89 14.54, 0.98 18.71, 3.16 20.73 C5.34 22.74, 9.87 22.89, 13.45 23.17 C17.03 23.44, 24.05 23.86, 24.63 22.38 C25.21 20.9, 19.73 17.01, 16.92 14.27 C14.11 11.53, 10.57 8.29, 7.75 5.92 C4.93 3.54, 1.29 0.99, 0 0 M0 0 C0.06 1.85, -0.16 7.63, 0.37 11.08 C0.89 14.54, 0.98 18.71, 3.16 20.73 C5.34 22.74, 9.87 22.89, 13.45 23.17 C17.03 23.44, 24.05 23.86, 24.63 22.38 C25.21 20.9, 19.73 17.01, 16.92 14.27 C14.11 11.53, 10.57 8.29, 7.75 5.92 C4.93 3.54, 1.29 0.99, 0 0" stroke="#000000" stroke-width="1" fill="none"></path></g></g><g stroke-linecap="round"><g transform="translate(752.3654174483975 226.58242088236608) rotate(0 -35.72290924309789 0)"><path d="M0 0 C-11.91 0, -59.54 0, -71.45 0 M0 0 C-11.91 0, -59.54 0, -71.45 0" stroke="#000000" stroke-width="1" fill="none"></path></g></g><g stroke-linecap="round"><g transform="translate(680.7539343238807 226.87194224461297) rotate(0 0 68.98820192798769)"><path d="M0 0 C0 23, 0 114.98, 0 137.98 M0 0 C0 23, 0 114.98, 0 137.98" stroke="#000000" stroke-width="1" fill="none"></path></g></g><g stroke-linecap="round"><g transform="translate(680.1994843173977 364.3879722098966) rotate(0 48.27338652075741 0)"><path d="M0 0 C16.09 0, 80.46 0, 96.55 0 M0 0 C16.09 0, 80.46 0, 96.55 0" stroke="#000000" stroke-width="1" fill="none"></path></g></g><g stroke-linecap="round"><g transform="translate(777.0816924133126 364.60646817637553) rotate(0 0.038985481988106585 -58.16630608765058)"><path d="M0 0 C0.01 -19.39, 0.06 -96.94, 0.08 -116.33 M0 0 C0.01 -19.39, 0.06 -96.94, 0.08 -116.33" stroke="#000000" stroke-width="1" fill="none"></path></g></g><g stroke-linecap="round"><g transform="translate(751.2520786010887 226.33251376566824) rotate(0 12.77344850947361 11.59239112717546)"><path d="M0 0 C4.26 3.86, 21.29 19.32, 25.55 23.18 M0 0 C4.26 3.86, 21.29 19.32, 25.55 23.18" stroke="#000000" stroke-width="1" fill="none"></path></g></g><g stroke-linecap="round"><g transform="translate(708.7790782893262 307.3330406690536) rotate(0 21.57261810945687 18.793511323320416)" fill-rule="evenodd"><path d="M-25.3 0 L60.52 0.12 L77.43 0.95 L80.63 5.82 L81.74 10.66 L82.19 17.95 L81.21 30.81 L77.86 36.53 L70.38 37.24 L-17.19 37.52 L-33.12 36.3 L-37.42 30.99 L-38.71 26.07 L-38.37 10.83 L-36.87 5.8 L-34.3 2.37 L-25.3 0" stroke="none" stroke-width="0" fill="#e64980" fill-rule="evenodd"></path><path d="M-25.3 0 C-17.84 0, 3.54 -0.06, 19.48 0 C35.43 0.06, 60.54 -0.08, 70.38 0.34 C80.22 0.76, 76.62 0.82, 78.52 2.54 C80.41 4.26, 81.18 6.86, 81.74 10.66 C82.31 14.47, 82.31 21.38, 81.91 25.39 C81.52 29.4, 81.29 32.72, 79.37 34.7 C77.44 36.67, 80.27 36.76, 70.38 37.24 C60.48 37.72, 36.05 37.58, 19.99 37.58 C3.93 37.58, -16.82 37.77, -25.98 37.24 C-35.14 36.7, -32.85 36.22, -34.97 34.36 C-37.09 32.5, -38.14 29.99, -38.71 26.07 C-39.27 22.15, -39.1 14.78, -38.37 10.83 C-37.63 6.88, -36.47 4.18, -34.3 2.37 C-32.12 0.56, -26.8 0.39, -25.3 0 M-25.3 0 C-17.84 0, 3.54 -0.06, 19.48 0 C35.43 0.06, 60.54 -0.08, 70.38 0.34 C80.22 0.76, 76.62 0.82, 78.52 2.54 C80.41 4.26, 81.18 6.86, 81.74 10.66 C82.31 14.47, 82.31 21.38, 81.91 25.39 C81.52 29.4, 81.29 32.72, 79.37 34.7 C77.44 36.67, 80.27 36.76, 70.38 37.24 C60.48 37.72, 36.05 37.58, 19.99 37.58 C3.93 37.58, -16.82 37.77, -25.98 37.24 C-35.14 36.7, -32.85 36.22, -34.97 34.36 C-37.09 32.5, -38.14 29.99, -38.71 26.07 C-39.27 22.15, -39.1 14.78, -38.37 10.83 C-37.63 6.88, -36.47 4.18, -34.3 2.37 C-32.12 0.56, -26.8 0.39, -25.3 0" stroke="#000000" stroke-width="1" fill="none"></path></g></g><g transform="translate(685.3799473420015 316.0171719095815) rotate(0 49 9)"><text x="0" y="15" font-family="Helvetica, Segoe UI Emoji" font-size="16px" fill="#ffff" text-anchor="start" style="white-space: pre;" direction="ltr">Report Image</text></g><g stroke-linecap="round"><g transform="translate(447.25911720325956 155.60001373291016) rotate(0 0 17.59996795654297)"><path d="M0 0 C0 5.87, 0 29.33, 0 35.2 M0 0 C0 5.87, 0 29.33, 0 35.2" stroke="#000000" stroke-width="2" fill="none"></path></g></g><g stroke-linecap="round"><g transform="translate(715.2591172032596 191.1999740600586) rotate(0 -254 0.4000091552734375)"><path d="M0 0 C-84.67 0.13, -423.33 0.67, -508 0.8 M0 0 C-84.67 0.13, -423.33 0.67, -508 0.8" stroke="#000000" stroke-width="2" fill="none"></path></g></g><g stroke-linecap="round"><g transform="translate(207.05913551380644 192.5999984741211) rotate(0 0.23529052734375 20.964705523322607)"><path d="M0 0 C0.08 6.99, 0.39 34.94, 0.47 41.93 M0 0 C0.08 6.99, 0.39 34.94, 0.47 41.93" stroke="#000000" stroke-width="2" fill="none"></path></g></g><g stroke-linecap="round"><g transform="translate(447.4591294102908 189.99999237060547) rotate(0 0.07060510971967915 18)"><path d="M0 0 C0.02 6, 0.12 30, 0.14 36 M0 0 C0.02 6, 0.12 30, 0.14 36" stroke="#000000" stroke-width="2" fill="none"></path></g></g><g stroke-linecap="round"><g transform="translate(715.8591538243534 191.99999237060547) rotate(0 0.1646854176241277 17.199996948242188)"><path d="M0 0 C0.05 5.73, 0.27 28.67, 0.33 34.4 M0 0 C0.05 5.73, 0.27 28.67, 0.33 34.4" stroke="#000000" stroke-width="2" fill="none"></path></g></g></svg>