<?xml version="1.0" encoding="UTF-8" standalone="no"?>
<svg
   version="1.1"
   viewBox="0 0 800.969712975832 530.4989720775036"
   width="800.969712975832"
   height="530.4989720775036"
   id="svg52"
   xmlns="http://www.w3.org/2000/svg"
   xmlns:svg="http://www.w3.org/2000/svg">
  <!-- svg-source:excalidraw -->
  <defs
     id="defs1">
    <style
       id="style1">
      @font-face {
        font-family: &quot;Virgil&quot;;
        src: url(&quot;https://excalidraw.com/Virgil.woff2&quot;);
      }
      @font-face {
        font-family: &quot;Cascadia&quot;;
        src: url(&quot;https://excalidraw.com/Cascadia.woff2&quot;);
      }
    </style>
  </defs>
  <rect
     style="fill:#e6e6e6;stroke-width:1.01802"
     id="rect52"
     width="796.71655"
     height="525.45355"
     x="2.1265869"
     y="2.5227051" />
  <g
     id="g53"
     transform="translate(-0.18825286,7.501042)">
    <g
       stroke-linecap="round"
       id="g3"
       transform="translate(0.93708383,-7.502105)">
      <g
         transform="translate(208.97948,318.39999)"
         id="g2">
        <path
           d="M 0,0 C -0.02,7.16 -0.08,35.82 -0.1,42.98 M 0,0 c -0.02,7.16 -0.08,35.82 -0.1,42.98"
           stroke="#000000"
           stroke-width="2"
           fill="none"
           id="path1" />
      </g>
    </g>
    <g
       stroke-linecap="round"
       transform="rotate(-0.1342152,94410.296,-165205.9)"
       id="g4">
      <path
         d="m 120.71,57 c 0,2.29 -0.14,4.59 -0.44,6.87 -0.29,2.27 -0.73,4.54 -1.31,6.77 -0.58,2.22 -1.31,4.43 -2.17,6.57 -0.86,2.14 -1.86,4.24 -2.99,6.27 -1.13,2.03 -2.39,4.01 -3.77,5.89 -1.38,1.89 -2.89,3.71 -4.5,5.42 -1.6,1.71 -3.33,3.35 -5.15,4.87 -1.81,1.52 -3.74,2.94 -5.74,4.24 -1.99,1.3 -4.09,2.5 -6.23,3.56 -2.15,1.07 -4.38,2.02 -6.65,2.83 -2.27,0.81 -4.6,1.5 -6.96,2.04 -2.35,0.55 -4.76,0.97 -7.17,1.25 -2.41,0.27 -4.85,0.41 -7.27,0.41 -2.43,0 -4.87,-0.14 -7.28,-0.41 -2.41,-0.28 -4.81,-0.7 -7.17,-1.25 -2.35,-0.54 -4.69,-1.23 -6.96,-2.04 -2.26,-0.81 -4.5,-1.76 -6.64,-2.83 -2.15,-1.06 -4.24,-2.26 -6.24,-3.56 -2,-1.3 -3.92,-2.72 -5.74,-4.24 C 18.52,98.14 16.79,96.5 15.18,94.79 13.57,93.08 12.06,91.26 10.68,89.37 9.31,87.49 8.04,85.51 6.91,83.48 5.79,81.45 4.78,79.35 3.92,77.21 3.06,75.07 2.33,72.86 1.75,70.64 1.17,68.41 0.73,66.14 0.44,63.87 0.15,61.59 0,59.29 0,57 c 0,-2.29 0.15,-4.6 0.44,-6.87 0.29,-2.28 0.73,-4.55 1.31,-6.77 0.58,-2.23 1.31,-4.43 2.17,-6.58 0.86,-2.14 1.87,-4.24 2.99,-6.27 1.13,-2.03 2.4,-4.01 3.77,-5.89 1.38,-1.89 2.89,-3.71 4.5,-5.42 1.61,-1.71 3.34,-3.35 5.15,-4.87 1.82,-1.51 3.74,-2.94 5.74,-4.24 2,-1.3 4.09,-2.5 6.24,-3.56 C 34.45,5.46 36.69,4.52 38.95,3.7 41.22,2.89 43.56,2.2 45.91,1.66 48.27,1.11 50.67,0.69 53.08,0.42 55.49,0.14 57.93,0 60.36,0 c 2.42,0 4.86,0.14 7.27,0.42 2.41,0.27 4.82,0.69 7.17,1.24 2.36,0.54 4.69,1.23 6.96,2.04 2.27,0.82 4.5,1.76 6.65,2.83 2.14,1.06 4.24,2.26 6.23,3.56 2,1.3 3.93,2.73 5.74,4.24 1.82,1.52 3.55,3.16 5.15,4.87 1.61,1.71 3.12,3.53 4.5,5.42 1.38,1.88 2.64,3.86 3.77,5.89 1.13,2.03 2.13,4.13 2.99,6.27 0.86,2.15 1.59,4.35 2.17,6.58 0.58,2.22 1.02,4.49 1.31,6.77 0.3,2.27 0.44,4.58 0.44,6.87"
         stroke="none"
         stroke-width="0"
         fill="#228be6"
         id="path2" />
      <path
         d="m 120.71,57 c 0,2.29 -0.14,4.59 -0.44,6.87 -0.29,2.27 -0.73,4.54 -1.31,6.77 -0.58,2.22 -1.31,4.43 -2.17,6.57 -0.86,2.14 -1.86,4.24 -2.99,6.27 -1.13,2.03 -2.39,4.01 -3.77,5.89 -1.38,1.89 -2.89,3.71 -4.5,5.42 -1.6,1.71 -3.33,3.35 -5.15,4.87 -1.81,1.52 -3.74,2.94 -5.74,4.24 -1.99,1.3 -4.09,2.5 -6.23,3.56 -2.15,1.07 -4.38,2.02 -6.65,2.83 -2.27,0.81 -4.6,1.5 -6.96,2.04 -2.35,0.55 -4.76,0.97 -7.17,1.25 -2.41,0.27 -4.85,0.41 -7.27,0.41 -2.43,0 -4.87,-0.14 -7.28,-0.41 -2.41,-0.28 -4.81,-0.7 -7.17,-1.25 -2.35,-0.54 -4.69,-1.23 -6.96,-2.04 -2.26,-0.81 -4.5,-1.76 -6.64,-2.83 -2.15,-1.06 -4.24,-2.26 -6.24,-3.56 -2,-1.3 -3.92,-2.72 -5.74,-4.24 C 18.52,98.14 16.79,96.5 15.18,94.79 13.57,93.08 12.06,91.26 10.68,89.37 9.31,87.49 8.04,85.51 6.91,83.48 5.79,81.45 4.78,79.35 3.92,77.21 3.06,75.07 2.33,72.86 1.75,70.64 1.17,68.41 0.73,66.14 0.44,63.87 0.15,61.59 0,59.29 0,57 c 0,-2.29 0.15,-4.6 0.44,-6.87 0.29,-2.28 0.73,-4.55 1.31,-6.77 0.58,-2.23 1.31,-4.43 2.17,-6.58 0.86,-2.14 1.87,-4.24 2.99,-6.27 1.13,-2.03 2.4,-4.01 3.77,-5.89 1.38,-1.89 2.89,-3.71 4.5,-5.42 1.61,-1.71 3.34,-3.35 5.15,-4.87 1.82,-1.51 3.74,-2.94 5.74,-4.24 2,-1.3 4.09,-2.5 6.24,-3.56 C 34.45,5.46 36.69,4.52 38.95,3.7 41.22,2.89 43.56,2.2 45.91,1.66 48.27,1.11 50.67,0.69 53.08,0.42 55.49,0.14 57.93,0 60.36,0 c 2.42,0 4.86,0.14 7.27,0.42 2.41,0.27 4.82,0.69 7.17,1.24 2.36,0.54 4.69,1.23 6.96,2.04 2.27,0.82 4.5,1.76 6.65,2.83 2.14,1.06 4.24,2.26 6.23,3.56 2,1.3 3.93,2.73 5.74,4.24 1.82,1.52 3.55,3.16 5.15,4.87 1.61,1.71 3.12,3.53 4.5,5.42 1.38,1.88 2.64,3.86 3.77,5.89 1.13,2.03 2.13,4.13 2.99,6.27 0.86,2.15 1.59,4.35 2.17,6.58 0.58,2.22 1.02,4.49 1.31,6.77 0.3,2.27 0.44,4.58 0.44,6.87"
         stroke="#000000"
         stroke-width="4"
         fill="none"
         id="path3" />
    </g>
    <g
       transform="translate(392.79607,267.69788)"
       id="g5">
      <text
         x="0"
         y="19"
         font-family="Helvetica, 'Segoe UI Emoji'"
         font-size="20px"
         fill="#ffff"
         text-anchor="start"
         style="white-space:pre"
         direction="ltr"
         id="text3">Report Field</text>
    </g>
    <g
       stroke-linecap="round"
       id="g7"
       transform="translate(0.93708383,-7.502105)">
      <g
         transform="rotate(89.862921,-8.6983837,356.59575)"
         id="g6">
        <path
           d="M 0,0 C -0.25,45.02 -1.27,225.09 -1.53,270.11 M 0,0 c -0.25,45.02 -1.27,225.09 -1.53,270.11"
           stroke="#000000"
           stroke-width="4"
           fill="none"
           id="path4" />
      </g>
    </g>
    <g
       stroke-linecap="round"
       transform="translate(368.99618,2.497895)"
       id="g8">
      <path
         d="M 79,0 156,73 79,144.8 0,73"
         stroke="none"
         stroke-width="0"
         fill="#12b886"
         fill-rule="evenodd"
         id="path6" />
      <path
         d="m 79,0 c 26.71,25.32 53.41,50.64 77,73 M 79,0 c 25.41,24.09 50.83,48.19 77,73 m 0,0 c -27.05,25.23 -54.11,50.45 -77,71.8 M 156,73 c -19.04,17.75 -38.08,35.51 -77,71.8 m 0,0 C 53.49,121.61 27.97,98.42 0,73 m 79,71.8 C 58.99,126.61 38.97,108.42 0,73 m 0,0 C 16.45,57.8 32.91,42.59 79,0 M 0,73 C 29.84,45.42 59.69,17.85 79,0"
         stroke="#000000"
         stroke-width="4"
         fill="none"
         id="path7" />
    </g>
    <g
       transform="translate(373.99618,63.397885)"
       id="g9">
      <text
         x="73"
         y="19"
         font-family="Helvetica, 'Segoe UI Emoji'"
         font-size="20px"
         fill="#ffff"
         text-anchor="middle"
         style="white-space:pre"
         direction="ltr"
         id="text7">Report</text>
    </g>
    <g
       stroke-linecap="round"
       transform="translate(146.59616,227.49787)"
       id="g10">
      <path
         d="M 0,0 H 134.4 V 82.4 H 0"
         stroke="none"
         stroke-width="0"
         fill="#228be6"
         id="path8" />
      <path
         d="M 0,0 C 38.01,0 76.02,0 134.4,0 M 0,0 c 51.18,0 102.36,0 134.4,0 m 0,0 c 0,30.36 0,60.73 0,82.4 m 0,-82.4 c 0,19.16 0,38.32 0,82.4 m 0,0 c -28.34,0 -56.68,0 -134.4,0 m 134.4,0 c -42.04,0 -84.08,0 -134.4,0 m 0,0 C 0,61.89 0,41.39 0,0 M 0,82.4 C 0,54.94 0,27.47 0,0"
         stroke="#000000"
         stroke-width="4"
         fill="none"
         id="path9" />
    </g>
    <g
       stroke-linecap="round"
       id="g12"
       transform="translate(0.93708383,-7.502105)">
      <g
         transform="translate(347.25912,365.99999)"
         id="g11">
        <path
           d="M 0,0 C 0,5.07 0,25.33 0,30.4 M 0,0 c 0,5.07 0,25.33 0,30.4"
           stroke="#000000"
           stroke-width="4"
           fill="none"
           id="path10" />
      </g>
    </g>
    <g
       stroke-linecap="round"
       id="g14"
       transform="translate(0.93708383,-7.502105)">
      <g
         transform="translate(77.659141,364.40005)"
         id="g13">
        <path
           d="M 0,0 C 0.13,5.33 0.67,26.67 0.8,32 M 0,0 c 0.13,5.33 0.67,26.67 0.8,32"
           stroke="#000000"
           stroke-width="4"
           fill="none"
           id="path11" />
      </g>
    </g>
    <g
       transform="translate(154.33747,260.73902)"
       id="g15">
      <text
         x="0"
         y="19"
         font-family="Helvetica, 'Segoe UI Emoji'"
         font-size="20px"
         fill="#ffffff"
         text-anchor="start"
         style="white-space:pre"
         direction="ltr"
         id="text13"> Report Table</text>
    </g>
    <g
       stroke-linecap="round"
       transform="rotate(-0.1342152,165366.6,-4413.883)"
       id="g16">
      <path
         d="m 136,61.5 c 0,2.47 -0.17,4.96 -0.5,7.41 -0.33,2.45 -0.82,4.91 -1.48,7.31 -0.65,2.4 -1.47,4.78 -2.44,7.09 -0.97,2.31 -2.1,4.58 -3.37,6.77 -1.27,2.19 -2.7,4.32 -4.25,6.35 -1.55,2.04 -3.25,4 -5.06,5.85 -1.81,1.85 -3.76,3.61 -5.81,5.25 -2.04,1.64 -4.21,3.18 -6.46,4.58 -2.25,1.41 -4.61,2.7 -7.03,3.84 -2.42,1.15 -4.93,2.18 -7.49,3.05 -2.55,0.88 -5.18,1.62 -7.84,2.21 -2.65,0.59 -5.36,1.04 -8.07,1.34 -2.72,0.3 -5.47,0.45 -8.2,0.45 -2.73,0 -5.48,-0.15 -8.2,-0.45 -2.71,-0.3 -5.42,-0.75 -8.07,-1.34 -2.66,-0.59 -5.29,-1.33 -7.84,-2.21 -2.56,-0.87 -5.07,-1.9 -7.49,-3.05 -2.42,-1.14 -4.78,-2.43 -7.03,-3.84 -2.25,-1.4 -4.42,-2.94 -6.46,-4.58 -2.05,-1.64 -4,-3.4 -5.81,-5.25 -1.81,-1.85 -3.51,-3.81 -5.06,-5.85 C 10.49,94.4 9.06,92.27 7.79,90.08 6.52,87.89 5.39,85.62 4.42,83.31 3.45,81 2.63,78.62 1.98,76.22 1.32,73.82 0.83,71.36 0.5,68.91 0.17,66.46 0,63.97 0,61.5 0,59.03 0.17,56.54 0.5,54.09 0.83,51.63 1.32,49.18 1.98,46.78 2.63,44.38 3.45,42 4.42,39.69 c 0.97,-2.31 2.1,-4.58 3.37,-6.77 1.27,-2.19 2.7,-4.32 4.25,-6.36 1.55,-2.03 3.25,-3.99 5.06,-5.84 1.81,-1.85 3.76,-3.62 5.81,-5.25 2.04,-1.64 4.21,-3.18 6.46,-4.58 C 31.62,9.48 33.98,8.19 36.4,7.04 38.82,5.9 41.33,4.87 43.89,4 46.44,3.12 49.07,2.38 51.73,1.79 54.38,1.2 57.09,0.75 59.8,0.45 62.52,0.15 65.27,0 68,0 c 2.73,0 5.48,0.15 8.2,0.45 2.71,0.3 5.42,0.75 8.07,1.34 2.66,0.59 5.29,1.33 7.84,2.21 2.56,0.87 5.07,1.9 7.49,3.04 2.42,1.15 4.78,2.44 7.03,3.85 2.25,1.4 4.42,2.94 6.46,4.58 2.05,1.63 4,3.4 5.81,5.25 1.81,1.85 3.51,3.81 5.06,5.84 1.55,2.04 2.98,4.17 4.25,6.36 1.27,2.19 2.4,4.46 3.37,6.77 0.97,2.31 1.79,4.69 2.44,7.09 0.66,2.4 1.15,4.85 1.48,7.31 0.33,2.45 0.5,4.94 0.5,7.41"
         stroke="none"
         stroke-width="0"
         fill="#fa5252"
         id="path14" />
      <path
         d="m 136,61.5 c 0,2.47 -0.17,4.96 -0.5,7.41 -0.33,2.45 -0.82,4.91 -1.48,7.31 -0.65,2.4 -1.47,4.78 -2.44,7.09 -0.97,2.31 -2.1,4.58 -3.37,6.77 -1.27,2.19 -2.7,4.32 -4.25,6.35 -1.55,2.04 -3.25,4 -5.06,5.85 -1.81,1.85 -3.76,3.61 -5.81,5.25 -2.04,1.64 -4.21,3.18 -6.46,4.58 -2.25,1.41 -4.61,2.7 -7.03,3.84 -2.42,1.15 -4.93,2.18 -7.49,3.05 -2.55,0.88 -5.18,1.62 -7.84,2.21 -2.65,0.59 -5.36,1.04 -8.07,1.34 -2.72,0.3 -5.47,0.45 -8.2,0.45 -2.73,0 -5.48,-0.15 -8.2,-0.45 -2.71,-0.3 -5.42,-0.75 -8.07,-1.34 -2.66,-0.59 -5.29,-1.33 -7.84,-2.21 -2.56,-0.87 -5.07,-1.9 -7.49,-3.05 -2.42,-1.14 -4.78,-2.43 -7.03,-3.84 -2.25,-1.4 -4.42,-2.94 -6.46,-4.58 -2.05,-1.64 -4,-3.4 -5.81,-5.25 -1.81,-1.85 -3.51,-3.81 -5.06,-5.85 C 10.49,94.4 9.06,92.27 7.79,90.08 6.52,87.89 5.39,85.62 4.42,83.31 3.45,81 2.63,78.62 1.98,76.22 1.32,73.82 0.83,71.36 0.5,68.91 0.17,66.46 0,63.97 0,61.5 0,59.03 0.17,56.54 0.5,54.09 0.83,51.63 1.32,49.18 1.98,46.78 2.63,44.38 3.45,42 4.42,39.69 c 0.97,-2.31 2.1,-4.58 3.37,-6.77 1.27,-2.19 2.7,-4.32 4.25,-6.36 1.55,-2.03 3.25,-3.99 5.06,-5.84 1.81,-1.85 3.76,-3.62 5.81,-5.25 2.04,-1.64 4.21,-3.18 6.46,-4.58 C 31.62,9.48 33.98,8.19 36.4,7.04 38.82,5.9 41.33,4.87 43.89,4 46.44,3.12 49.07,2.38 51.73,1.79 54.38,1.2 57.09,0.75 59.8,0.45 62.52,0.15 65.27,0 68,0 c 2.73,0 5.48,0.15 8.2,0.45 2.71,0.3 5.42,0.75 8.07,1.34 2.66,0.59 5.29,1.33 7.84,2.21 2.56,0.87 5.07,1.9 7.49,3.04 2.42,1.15 4.78,2.44 7.03,3.85 2.25,1.4 4.42,2.94 6.46,4.58 2.05,1.63 4,3.4 5.81,5.25 1.81,1.85 3.51,3.81 5.06,5.84 1.55,2.04 2.98,4.17 4.25,6.36 1.27,2.19 2.4,4.46 3.37,6.77 0.97,2.31 1.79,4.69 2.44,7.09 0.66,2.4 1.15,4.85 1.48,7.31 0.33,2.45 0.5,4.94 0.5,7.41"
         stroke="#000000"
         stroke-width="4"
         fill="none"
         id="path15" />
    </g>
    <g
       stroke-linecap="round"
       transform="rotate(-0.1342152,166696,-118991.03)"
       id="g17">
      <path
         d="m 135.72,61.5 c 0,2.47 -0.17,4.96 -0.5,7.41 -0.33,2.45 -0.82,4.91 -1.47,7.31 -0.66,2.4 -1.47,4.78 -2.44,7.09 -0.97,2.31 -2.1,4.58 -3.36,6.77 -1.27,2.19 -2.7,4.32 -4.24,6.35 -1.55,2.04 -3.25,4 -5.06,5.85 -1.81,1.85 -3.75,3.61 -5.79,5.25 -2.04,1.64 -4.21,3.18 -6.45,4.58 -2.25,1.41 -4.6,2.7 -7.02,3.84 -2.41,1.15 -4.92,2.18 -7.47,3.05 -2.55,0.88 -5.17,1.62 -7.82,2.21 -2.65,0.59 -5.35,1.04 -8.06,1.34 -2.71,0.3 -5.45,0.45 -8.18,0.45 -2.73,0 -5.47,-0.15 -8.18,-0.45 -2.71,-0.3 -5.41,-0.75 -8.06,-1.34 -2.65,-0.59 -5.27,-1.33 -7.82,-2.21 -2.55,-0.87 -5.06,-1.9 -7.48,-3.05 -2.41,-1.14 -4.77,-2.43 -7.01,-3.84 -2.24,-1.4 -4.41,-2.94 -6.45,-4.58 -2.04,-1.64 -3.99,-3.4 -5.79,-5.25 -1.81,-1.85 -3.51,-3.81 -5.06,-5.85 C 10.46,94.4 9.04,92.27 7.77,90.08 6.51,87.89 5.38,85.62 4.41,83.31 3.44,81 2.62,78.62 1.97,76.22 1.32,73.82 0.82,71.36 0.49,68.91 0.17,66.46 0,63.97 0,61.5 0,59.03 0.17,56.54 0.49,54.09 0.82,51.63 1.32,49.18 1.97,46.78 2.62,44.38 3.44,42 4.41,39.69 c 0.97,-2.31 2.1,-4.58 3.36,-6.77 1.27,-2.19 2.69,-4.32 4.24,-6.36 1.55,-2.03 3.25,-3.99 5.06,-5.84 1.8,-1.85 3.75,-3.62 5.79,-5.25 2.04,-1.64 4.21,-3.18 6.45,-4.58 2.24,-1.41 4.6,-2.7 7.01,-3.85 C 38.74,5.9 41.25,4.87 43.8,4 46.35,3.12 48.97,2.38 51.62,1.79 54.27,1.2 56.97,0.75 59.68,0.45 62.39,0.15 65.13,0 67.86,0 c 2.73,0 5.47,0.15 8.18,0.45 2.71,0.3 5.41,0.75 8.06,1.34 2.65,0.59 5.27,1.33 7.82,2.21 2.55,0.87 5.06,1.9 7.47,3.04 2.42,1.15 4.77,2.44 7.02,3.85 2.24,1.4 4.41,2.94 6.45,4.58 2.04,1.63 3.98,3.4 5.79,5.25 1.81,1.85 3.51,3.81 5.06,5.84 1.54,2.04 2.97,4.17 4.24,6.36 1.26,2.19 2.39,4.46 3.36,6.77 0.97,2.31 1.78,4.69 2.44,7.09 0.65,2.4 1.14,4.85 1.47,7.31 0.33,2.45 0.5,4.94 0.5,7.41"
         stroke="none"
         stroke-width="0"
         fill="#fa5252"
         id="path16" />
      <path
         d="m 135.72,61.5 c 0,2.47 -0.17,4.96 -0.5,7.41 -0.33,2.45 -0.82,4.91 -1.47,7.31 -0.66,2.4 -1.47,4.78 -2.44,7.09 -0.97,2.31 -2.1,4.58 -3.36,6.77 -1.27,2.19 -2.7,4.32 -4.24,6.35 -1.55,2.04 -3.25,4 -5.06,5.85 -1.81,1.85 -3.75,3.61 -5.79,5.25 -2.04,1.64 -4.21,3.18 -6.45,4.58 -2.25,1.41 -4.6,2.7 -7.02,3.84 -2.41,1.15 -4.92,2.18 -7.47,3.05 -2.55,0.88 -5.17,1.62 -7.82,2.21 -2.65,0.59 -5.35,1.04 -8.06,1.34 -2.71,0.3 -5.45,0.45 -8.18,0.45 -2.73,0 -5.47,-0.15 -8.18,-0.45 -2.71,-0.3 -5.41,-0.75 -8.06,-1.34 -2.65,-0.59 -5.27,-1.33 -7.82,-2.21 -2.55,-0.87 -5.06,-1.9 -7.48,-3.05 -2.41,-1.14 -4.77,-2.43 -7.01,-3.84 -2.24,-1.4 -4.41,-2.94 -6.45,-4.58 -2.04,-1.64 -3.99,-3.4 -5.79,-5.25 -1.81,-1.85 -3.51,-3.81 -5.06,-5.85 C 10.46,94.4 9.04,92.27 7.77,90.08 6.51,87.89 5.38,85.62 4.41,83.31 3.44,81 2.62,78.62 1.97,76.22 1.32,73.82 0.82,71.36 0.49,68.91 0.17,66.46 0,63.97 0,61.5 0,59.03 0.17,56.54 0.49,54.09 0.82,51.63 1.32,49.18 1.97,46.78 2.62,44.38 3.44,42 4.41,39.69 c 0.97,-2.31 2.1,-4.58 3.36,-6.77 1.27,-2.19 2.69,-4.32 4.24,-6.36 1.55,-2.03 3.25,-3.99 5.06,-5.84 1.8,-1.85 3.75,-3.62 5.79,-5.25 2.04,-1.64 4.21,-3.18 6.45,-4.58 2.24,-1.41 4.6,-2.7 7.01,-3.85 C 38.74,5.9 41.25,4.87 43.8,4 46.35,3.12 48.97,2.38 51.62,1.79 54.27,1.2 56.97,0.75 59.68,0.45 62.39,0.15 65.13,0 67.86,0 c 2.73,0 5.47,0.15 8.18,0.45 2.71,0.3 5.41,0.75 8.06,1.34 2.65,0.59 5.27,1.33 7.82,2.21 2.55,0.87 5.06,1.9 7.47,3.04 2.42,1.15 4.77,2.44 7.02,3.85 2.24,1.4 4.41,2.94 6.45,4.58 2.04,1.63 3.98,3.4 5.79,5.25 1.81,1.85 3.51,3.81 5.06,5.84 1.54,2.04 2.97,4.17 4.24,6.36 1.26,2.19 2.39,4.46 3.36,6.77 0.97,2.31 1.78,4.69 2.44,7.09 0.65,2.4 1.14,4.85 1.47,7.31 0.33,2.45 0.5,4.94 0.5,7.41"
         stroke="#000000"
         stroke-width="4"
         fill="none"
         id="path17" />
    </g>
    <g
       transform="translate(285.69617,439.19786)"
       id="g18">
      <text
         x="0"
         y="19"
         font-family="Helvetica, 'Segoe UI Emoji'"
         font-size="20px"
         fill="#ffffff"
         text-anchor="start"
         style="white-space:pre"
         direction="ltr"
         id="text17">Table Column</text>
    </g>
    <g
       transform="translate(17.696231,437.59792)"
       id="g19">
      <text
         x="0"
         y="19"
         font-family="Helvetica, 'Segoe UI Emoji'"
         font-size="20px"
         fill="#ffff"
         text-anchor="start"
         style="white-space:pre"
         direction="ltr"
         id="text18">Table Column</text>
    </g>
    <g
       stroke-linecap="round"
       transform="rotate(-10.505398,1678.9488,-3634.2225)"
       id="g20">
      <path
         d="m 56.81,27.88 c 0,1.61 -0.14,3.25 -0.43,4.84 -0.29,1.58 -0.72,3.17 -1.28,4.69 -0.56,1.52 -1.27,3.01 -2.09,4.4 -0.83,1.4 -1.79,2.75 -2.84,3.98 -1.06,1.24 -2.25,2.4 -3.51,3.44 -1.25,1.04 -2.63,1.98 -4.05,2.79 -1.43,0.8 -2.94,1.5 -4.49,2.05 -1.54,0.55 -3.16,0.98 -4.78,1.26 -1.62,0.28 -3.29,0.42 -4.93,0.42 -1.65,0 -3.32,-0.14 -4.94,-0.42 C 21.85,55.05 20.24,54.62 18.69,54.07 17.15,53.52 15.63,52.82 14.2,52.02 12.78,51.21 11.41,50.27 10.15,49.23 8.89,48.19 7.7,47.03 6.65,45.79 5.59,44.56 4.63,43.21 3.81,41.81 2.98,40.42 2.28,38.93 1.71,37.41 1.15,35.89 0.72,34.3 0.43,32.72 0.15,31.13 0,29.49 0,27.88 0,26.26 0.15,24.62 0.43,23.03 0.72,21.45 1.15,19.86 1.71,18.34 2.28,16.83 2.98,15.33 3.81,13.94 4.63,12.54 5.59,11.19 6.65,9.96 7.7,8.72 8.89,7.56 10.15,6.52 11.41,5.48 12.78,4.54 14.2,3.73 15.63,2.93 17.15,2.23 18.69,1.68 20.24,1.13 21.85,0.7 23.47,0.42 25.09,0.14 26.76,0 28.41,0 c 1.64,0 3.31,0.14 4.93,0.42 1.62,0.28 3.24,0.71 4.78,1.26 1.55,0.55 3.06,1.25 4.49,2.05 1.42,0.81 2.8,1.75 4.05,2.79 1.26,1.04 2.45,2.2 3.51,3.44 1.05,1.23 2.01,2.58 2.84,3.98 0.82,1.39 1.53,2.89 2.09,4.4 0.56,1.52 0.99,3.11 1.28,4.69 0.29,1.59 0.36,4.04 0.43,4.85 0.07,0.8 0.07,-0.81 0,0"
         stroke="none"
         stroke-width="0"
         fill="#bfc548"
         id="path19" />
      <path
         d="m 56.81,27.88 c 0,1.61 -0.14,3.25 -0.43,4.84 -0.29,1.58 -0.72,3.17 -1.28,4.69 -0.56,1.52 -1.27,3.01 -2.09,4.4 -0.83,1.4 -1.79,2.75 -2.84,3.98 -1.06,1.24 -2.25,2.4 -3.51,3.44 -1.25,1.04 -2.63,1.98 -4.05,2.79 -1.43,0.8 -2.94,1.5 -4.49,2.05 -1.54,0.55 -3.16,0.98 -4.78,1.26 -1.62,0.28 -3.29,0.42 -4.93,0.42 -1.65,0 -3.32,-0.14 -4.94,-0.42 C 21.85,55.05 20.24,54.62 18.69,54.07 17.15,53.52 15.63,52.82 14.2,52.02 12.78,51.21 11.41,50.27 10.15,49.23 8.89,48.19 7.7,47.03 6.65,45.79 5.59,44.56 4.63,43.21 3.81,41.81 2.98,40.42 2.28,38.93 1.71,37.41 1.15,35.89 0.72,34.3 0.43,32.72 0.15,31.13 0,29.49 0,27.88 0,26.26 0.15,24.62 0.43,23.03 0.72,21.45 1.15,19.86 1.71,18.34 2.28,16.83 2.98,15.33 3.81,13.94 4.63,12.54 5.59,11.19 6.65,9.96 7.7,8.72 8.89,7.56 10.15,6.52 11.41,5.48 12.78,4.54 14.2,3.73 15.63,2.93 17.15,2.23 18.69,1.68 20.24,1.13 21.85,0.7 23.47,0.42 25.09,0.14 26.76,0 28.41,0 c 1.64,0 3.31,0.14 4.93,0.42 1.62,0.28 3.24,0.71 4.78,1.26 1.55,0.55 3.06,1.25 4.49,2.05 1.42,0.81 2.8,1.75 4.05,2.79 1.26,1.04 2.45,2.2 3.51,3.44 1.05,1.23 2.01,2.58 2.84,3.98 0.82,1.39 1.53,2.89 2.09,4.4 0.56,1.52 0.99,3.11 1.28,4.69 0.29,1.59 0.36,4.04 0.43,4.85 0.07,0.8 0.07,-0.81 0,0"
         stroke="#bfc548"
         stroke-width="1"
         fill="none"
         id="path20" />
    </g>
    <g
       stroke-linecap="round"
       id="g23"
       transform="translate(0.93708383,-7.502105)">
      <g
         transform="rotate(-10.505398,1953.1799,-3700.9854)"
         fill-rule="evenodd"
         id="g22">
        <path
           d="m 0,0 0.15,0.53 -4.6,-7.03 -0.33,-6.94 2.39,-4.86 4.84,-3.94 9.36,-2.44 23.12,3.13 4.4,-0.61 3.29,-1.39 4.9,-3.86 2.81,-5.32 -1.56,12.77 -3.8,8.41 -7.81,8 -6.7,4.32 L 23.07,4.18 16.15,5.27 9.79,4.87 4.16,2.81 -0.51,0.03 0,0"
           stroke="none"
           stroke-width="0"
           fill="#ffffff"
           fill-rule="evenodd"
           id="path21" />
        <path
           d="m 0,0 c -0.04,0.04 0.51,1.31 -0.23,0.22 -0.75,-1.08 -3.47,-4.44 -4.22,-6.72 -0.76,-2.28 -0.68,-4.98 -0.33,-6.94 0.34,-1.97 1.19,-3.39 2.39,-4.86 1.21,-1.46 2.47,-2.87 4.84,-3.94 2.36,-1.06 6.25,-2.16 9.36,-2.44 3.11,-0.27 5.43,0.28 9.29,0.8 3.85,0.52 10.25,2.27 13.83,2.33 3.59,0.05 5.59,-1.02 7.69,-2 2.09,-0.98 3.61,-2.33 4.9,-3.86 1.28,-1.53 2.6,-6.56 2.81,-5.32 0.21,1.24 -0.67,9.25 -1.56,12.77 -0.9,3.53 -1.87,5.67 -3.8,8.41 -1.94,2.73 -4.16,5.38 -7.81,8 C 33.51,-0.93 27.63,2.77 23.07,4.18 18.51,5.58 13.6,5.47 9.79,4.87 5.97,4.27 1.81,1.4 0.17,0.59 -1.46,-0.23 0.03,0.1 0,0 m 0,0 c -0.04,0.04 0.51,1.31 -0.23,0.22 -0.75,-1.08 -3.47,-4.44 -4.22,-6.72 -0.76,-2.28 -0.68,-4.98 -0.33,-6.94 0.34,-1.97 1.19,-3.39 2.39,-4.86 1.21,-1.46 2.47,-2.87 4.84,-3.94 2.36,-1.06 6.25,-2.16 9.36,-2.44 3.11,-0.27 5.43,0.28 9.29,0.8 3.85,0.52 10.25,2.27 13.83,2.33 3.59,0.05 5.59,-1.02 7.69,-2 2.09,-0.98 3.61,-2.33 4.9,-3.86 1.28,-1.53 2.6,-6.56 2.81,-5.32 0.21,1.24 -0.67,9.25 -1.56,12.77 -0.9,3.53 -1.87,5.67 -3.8,8.41 -1.94,2.73 -4.16,5.38 -7.81,8 C 33.51,-0.93 27.63,2.77 23.07,4.18 18.51,5.58 13.6,5.47 9.79,4.87 5.97,4.27 1.81,1.4 0.17,0.59 -1.46,-0.23 0.03,0.1 0,0"
           stroke="#82c91e"
           stroke-width="1"
           fill="none"
           id="path22" />
      </g>
    </g>
    <g
       stroke-linecap="round"
       id="g25"
       transform="translate(0.93708383,-7.502105)">
      <g
         transform="rotate(-10.505398,1935.9871,-3718.5704)"
         fill-rule="evenodd"
         id="g24">
        <path
           d="m 0,0 9.1,-0.7 8.54,-1.71 8.6,-3.07 6.45,-4.07 3.13,-3.92 -0.03,1.16 -2.85,4.36 -3.92,4.03 -5.35,3.41 L 9.99,3.23 3.36,3.67 -2.93,3.43 -5.27,1.83 -6.07,0.24 0,0"
           stroke="none"
           stroke-width="0"
           fill="#82c91e"
           fill-rule="evenodd"
           id="path23" />
        <path
           d="M 0,0 C 0.66,-0.06 2.47,-0.21 3.99,-0.33 5.5,-0.45 6.83,-0.36 9.1,-0.7 c 2.28,-0.35 5.68,-0.91 8.54,-1.71 2.85,-0.79 6.46,-2.11 8.6,-3.07 2.14,-0.97 3.17,-2.05 4.25,-2.73 1.07,-0.68 1.55,-0.77 2.2,-1.34 0.65,-0.57 1.16,-1.41 1.69,-2.06 0.52,-0.65 1.21,-1.74 1.44,-1.86 0.24,-0.12 0.45,0.24 -0.03,1.16 -0.48,0.92 -2.22,3.48 -2.85,4.36 -0.62,0.88 -0.6,0.59 -0.91,0.91 -0.31,0.32 -0.45,0.49 -0.95,1.01 -0.5,0.52 -0.83,1.19 -2.06,2.11 C 27.78,-3 25.76,-1.48 23.67,-0.51 21.58,0.45 18.74,1.25 16.46,1.88 14.18,2.5 12.17,2.93 9.99,3.23 7.8,3.53 5.51,3.64 3.36,3.67 1.21,3.7 -1.36,4 -2.93,3.43 -4.5,2.85 -6.56,0.81 -6.07,0.24 -5.58,-0.33 -1.01,0.04 0,0 M 0,0 C 0.66,-0.06 2.47,-0.21 3.99,-0.33 5.5,-0.45 6.83,-0.36 9.1,-0.7 c 2.28,-0.35 5.68,-0.91 8.54,-1.71 2.85,-0.79 6.46,-2.11 8.6,-3.07 2.14,-0.97 3.17,-2.05 4.25,-2.73 1.07,-0.68 1.55,-0.77 2.2,-1.34 0.65,-0.57 1.16,-1.41 1.69,-2.06 0.52,-0.65 1.21,-1.74 1.44,-1.86 0.24,-0.12 0.45,0.24 -0.03,1.16 -0.48,0.92 -2.22,3.48 -2.85,4.36 -0.62,0.88 -0.6,0.59 -0.91,0.91 -0.31,0.32 -0.45,0.49 -0.95,1.01 -0.5,0.52 -0.83,1.19 -2.06,2.11 C 27.78,-3 25.76,-1.48 23.67,-0.51 21.58,0.45 18.74,1.25 16.46,1.88 14.18,2.5 12.17,2.93 9.99,3.23 7.8,3.53 5.51,3.64 3.36,3.67 1.21,3.7 -1.36,4 -2.93,3.43 -4.5,2.85 -6.56,0.81 -6.07,0.24 -5.58,-0.33 -1.01,0.04 0,0"
           stroke="#82c91e"
           stroke-width="1"
           fill="none"
           id="path24" />
      </g>
    </g>
    <g
       stroke-linecap="round"
       transform="rotate(-10.505398,1898.3263,-3676.6321)"
       id="g26">
      <path
         d="M 4.23,2.04 C 4.23,2.16 4.22,2.28 4.2,2.39 4.18,2.51 4.14,2.63 4.1,2.74 4.06,2.85 4.01,2.96 3.95,3.06 3.88,3.16 3.81,3.26 3.73,3.35 3.66,3.44 3.57,3.53 3.47,3.6 3.38,3.68 3.28,3.75 3.17,3.81 3.07,3.87 2.95,3.92 2.84,3.96 2.72,4 2.6,4.03 2.48,4.05 2.36,4.07 2.24,4.08 2.11,4.08 1.99,4.08 1.87,4.07 1.75,4.05 1.63,4.03 1.51,4 1.39,3.96 1.28,3.92 1.16,3.87 1.06,3.81 0.95,3.75 0.85,3.68 0.76,3.6 0.66,3.53 0.57,3.44 0.49,3.35 0.42,3.26 0.34,3.16 0.28,3.06 0.22,2.96 0.17,2.85 0.13,2.74 0.09,2.63 0.05,2.51 0.03,2.39 0.01,2.28 0,2.16 0,2.04 0,1.92 0.01,1.8 0.03,1.69 0.05,1.57 0.09,1.45 0.13,1.34 0.17,1.23 0.22,1.12 0.28,1.02 0.34,0.92 0.42,0.82 0.49,0.73 0.57,0.64 0.66,0.55 0.76,0.48 0.85,0.4 0.95,0.33 1.06,0.27 1.16,0.21 1.28,0.16 1.39,0.12 1.51,0.08 1.63,0.05 1.75,0.03 1.87,0.01 1.99,0 2.11,0 2.24,0 2.36,0.01 2.48,0.03 2.6,0.05 2.72,0.08 2.84,0.12 c 0.11,0.04 0.23,0.09 0.33,0.15 0.11,0.06 0.21,0.13 0.3,0.21 0.1,0.07 0.19,0.16 0.26,0.25 0.08,0.09 0.15,0.19 0.22,0.29 0.06,0.1 0.11,0.21 0.15,0.32 0.04,0.11 0.08,0.23 0.1,0.35 0.02,0.11 0.02,0.29 0.03,0.35 0,0.06 0,-0.06 0,0"
         stroke="none"
         stroke-width="0"
         fill="#ffffff"
         id="path25" />
      <path
         d="M 4.23,2.04 C 4.23,2.16 4.22,2.28 4.2,2.39 4.18,2.51 4.14,2.63 4.1,2.74 4.06,2.85 4.01,2.96 3.95,3.06 3.88,3.16 3.81,3.26 3.73,3.35 3.66,3.44 3.57,3.53 3.47,3.6 3.38,3.68 3.28,3.75 3.17,3.81 3.07,3.87 2.95,3.92 2.84,3.96 2.72,4 2.6,4.03 2.48,4.05 2.36,4.07 2.24,4.08 2.11,4.08 1.99,4.08 1.87,4.07 1.75,4.05 1.63,4.03 1.51,4 1.39,3.96 1.28,3.92 1.16,3.87 1.06,3.81 0.95,3.75 0.85,3.68 0.76,3.6 0.66,3.53 0.57,3.44 0.49,3.35 0.42,3.26 0.34,3.16 0.28,3.06 0.22,2.96 0.17,2.85 0.13,2.74 0.09,2.63 0.05,2.51 0.03,2.39 0.01,2.28 0,2.16 0,2.04 0,1.92 0.01,1.8 0.03,1.69 0.05,1.57 0.09,1.45 0.13,1.34 0.17,1.23 0.22,1.12 0.28,1.02 0.34,0.92 0.42,0.82 0.49,0.73 0.57,0.64 0.66,0.55 0.76,0.48 0.85,0.4 0.95,0.33 1.06,0.27 1.16,0.21 1.28,0.16 1.39,0.12 1.51,0.08 1.63,0.05 1.75,0.03 1.87,0.01 1.99,0 2.11,0 2.24,0 2.36,0.01 2.48,0.03 2.6,0.05 2.72,0.08 2.84,0.12 c 0.11,0.04 0.23,0.09 0.33,0.15 0.11,0.06 0.21,0.13 0.3,0.21 0.1,0.07 0.19,0.16 0.26,0.25 0.08,0.09 0.15,0.19 0.22,0.29 0.06,0.1 0.11,0.21 0.15,0.32 0.04,0.11 0.08,0.23 0.1,0.35 0.02,0.11 0.02,0.29 0.03,0.35 0,0.06 0,-0.06 0,0"
         stroke="#82c91e"
         stroke-width="1"
         fill="none"
         id="path26" />
    </g>
    <g
       stroke-linecap="round"
       id="g29"
       transform="translate(0.93708383,-7.502105)">
      <g
         transform="translate(752.11165,226.363)"
         fill-rule="evenodd"
         id="g28">
        <path
           d="m 0,0 1.14,16.45 2.02,4.28 4.62,1.87 5.67,0.57 6.72,0.26 4.46,-1.05 L 22.05,18.8 7.75,5.92 0,0"
           stroke="none"
           stroke-width="0"
           fill="#e64980"
           fill-rule="evenodd"
           id="path27" />
        <path
           d="m 0,0 c 0.06,1.85 -0.16,7.63 0.37,11.08 0.52,3.46 0.61,7.63 2.79,9.65 2.18,2.01 6.71,2.16 10.29,2.44 3.58,0.27 10.6,0.69 11.18,-0.79 0.58,-1.48 -4.9,-5.37 -7.71,-8.11 C 14.11,11.53 10.57,8.29 7.75,5.92 4.93,3.54 1.29,0.99 0,0 m 0,0 c 0.06,1.85 -0.16,7.63 0.37,11.08 0.52,3.46 0.61,7.63 2.79,9.65 2.18,2.01 6.71,2.16 10.29,2.44 3.58,0.27 10.6,0.69 11.18,-0.79 0.58,-1.48 -4.9,-5.37 -7.71,-8.11 C 14.11,11.53 10.57,8.29 7.75,5.92 4.93,3.54 1.29,0.99 0,0"
           stroke="#000000"
           stroke-width="1"
           fill="none"
           id="path28" />
      </g>
    </g>
    <g
       stroke-linecap="round"
       id="g31"
       transform="translate(0.93708383,-7.502105)">
      <g
         transform="translate(752.36542,226.58242)"
         id="g30">
        <path
           d="M 0,0 C -11.91,0 -59.54,0 -71.45,0 M 0,0 c -11.91,0 -59.54,0 -71.45,0"
           stroke="#000000"
           stroke-width="1"
           fill="none"
           id="path29" />
      </g>
    </g>
    <g
       stroke-linecap="round"
       id="g33"
       transform="translate(0.93708383,-7.502105)">
      <g
         transform="translate(680.75393,226.87194)"
         id="g32">
        <path
           d="M 0,0 C 0,23 0,114.98 0,137.98 M 0,0 c 0,23 0,114.98 0,137.98"
           stroke="#000000"
           stroke-width="1"
           fill="none"
           id="path31" />
      </g>
    </g>
    <g
       stroke-linecap="round"
       id="g35"
       transform="translate(0.93708383,-7.502105)">
      <g
         transform="translate(680.19948,364.38797)"
         id="g34">
        <path
           d="M 0,0 C 16.09,0 80.46,0 96.55,0 M 0,0 c 16.09,0 80.46,0 96.55,0"
           stroke="#000000"
           stroke-width="1"
           fill="none"
           id="path33" />
      </g>
    </g>
    <g
       stroke-linecap="round"
       id="g37"
       transform="translate(0.93708383,-7.502105)">
      <g
         transform="translate(777.08169,364.60647)"
         id="g36">
        <path
           d="M 0,0 C 0.01,-19.39 0.06,-96.94 0.08,-116.33 M 0,0 c 0.01,-19.39 0.06,-96.94 0.08,-116.33"
           stroke="#000000"
           stroke-width="1"
           fill="none"
           id="path35" />
      </g>
    </g>
    <g
       stroke-linecap="round"
       id="g39"
       transform="translate(0.93708383,-7.502105)">
      <g
         transform="translate(751.25208,226.33251)"
         id="g38">
        <path
           d="M 0,0 C 4.26,3.86 21.29,19.32 25.55,23.18 M 0,0 c 4.26,3.86 21.29,19.32 25.55,23.18"
           stroke="#000000"
           stroke-width="1"
           fill="none"
           id="path37" />
      </g>
    </g>
    <g
       stroke-linecap="round"
       id="g41"
       transform="translate(0.93708383,-7.502105)">
      <g
         transform="translate(683.47509,307.33304)"
         fill-rule="evenodd"
         id="g40">
        <path
           d="m 0,0 85.82,0.12 16.91,0.83 3.2,4.87 1.12,4.84 0.44,7.29 -0.97,12.86 -3.35,5.72 -7.49,0.71 L 8.11,37.52 -7.81,36.3 -12.12,30.99 -13.4,26.07 -13.06,10.83 -11.57,5.8 -8.99,2.37 0,0"
           stroke="none"
           stroke-width="0"
           fill="#e64980"
           fill-rule="evenodd"
           id="path39" />
        <path
           d="m 0,0 c 7.46,0 28.84,-0.06 44.79,0 15.94,0.06 41.05,-0.08 50.89,0.34 9.84,0.42 6.25,0.48 8.14,2.2 1.9,1.72 2.66,4.32 3.23,8.12 0.56,3.81 0.56,10.72 0.17,14.73 -0.4,4.01 -0.63,7.33 -2.55,9.31 -1.92,1.97 0.91,2.06 -8.99,2.54 -9.9,0.48 -34.32,0.34 -50.38,0.34 -16.06,0 -36.82,0.19 -45.98,-0.34 -9.16,-0.54 -6.87,-1.02 -8.99,-2.88 -2.12,-1.86 -3.17,-4.37 -3.73,-8.29 -0.57,-3.92 -0.4,-11.29 0.34,-15.24 0.73,-3.95 1.89,-6.65 4.07,-8.46 C -6.81,0.56 -1.5,0.39 0,0 m 0,0 c 7.46,0 28.84,-0.06 44.79,0 15.94,0.06 41.05,-0.08 50.89,0.34 9.84,0.42 6.25,0.48 8.14,2.2 1.9,1.72 2.66,4.32 3.23,8.12 0.56,3.81 0.56,10.72 0.17,14.73 -0.4,4.01 -0.63,7.33 -2.55,9.31 -1.92,1.97 0.91,2.06 -8.99,2.54 -9.9,0.48 -34.32,0.34 -50.38,0.34 -16.06,0 -36.82,0.19 -45.98,-0.34 -9.16,-0.54 -6.87,-1.02 -8.99,-2.88 -2.12,-1.86 -3.17,-4.37 -3.73,-8.29 -0.57,-3.92 -0.4,-11.29 0.34,-15.24 0.73,-3.95 1.89,-6.65 4.07,-8.46 C -6.81,0.56 -1.5,0.39 0,0"
           stroke="#000000"
           stroke-width="1"
           fill="none"
           id="path40" />
      </g>
    </g>
    <g
       transform="translate(686.31703,308.51506)"
       id="g42">
      <text
         x="0"
         y="15"
         font-family="Helvetica, 'Segoe UI Emoji'"
         font-size="16px"
         fill="#ffff"
         text-anchor="start"
         style="white-space:pre"
         direction="ltr"
         id="text41">Report Image</text>
    </g>
    <g
       stroke-linecap="round"
       id="g44"
       transform="translate(0.93708383,-7.502105)">
      <g
         transform="translate(447.25912,155.60001)"
         id="g43">
        <path
           d="M 0,0 C 0,5.87 0,29.33 0,35.2 M 0,0 c 0,5.87 0,29.33 0,35.2"
           stroke="#000000"
           stroke-width="2"
           fill="none"
           id="path42" />
      </g>
    </g>
    <g
       stroke-linecap="round"
       id="g46"
       transform="translate(0.93708383,-7.502105)">
      <g
         transform="translate(715.25912,191.19997)"
         id="g45">
        <path
           d="M 0,0 C -84.67,0.13 -423.33,0.67 -508,0.8 M 0,0 c -84.67,0.13 -423.33,0.67 -508,0.8"
           stroke="#000000"
           stroke-width="2"
           fill="none"
           id="path44" />
      </g>
    </g>
    <g
       stroke-linecap="round"
       id="g48"
       transform="translate(0.93708383,-7.502105)">
      <g
         transform="translate(207.05913,192.6)"
         id="g47">
        <path
           d="M 0,0 C 0.08,6.99 0.39,34.94 0.47,41.93 M 0,0 c 0.08,6.99 0.39,34.94 0.47,41.93"
           stroke="#000000"
           stroke-width="2"
           fill="none"
           id="path46" />
      </g>
    </g>
    <g
       stroke-linecap="round"
       id="g50"
       transform="translate(0.93708383,-7.502105)">
      <g
         transform="translate(447.45913,189.99999)"
         id="g49">
        <path
           d="M 0,0 C 0.02,6 0.12,30 0.14,36 M 0,0 c 0.02,6 0.12,30 0.14,36"
           stroke="#000000"
           stroke-width="2"
           fill="none"
           id="path48" />
      </g>
    </g>
    <g
       stroke-linecap="round"
       id="g52"
       transform="translate(0.93708383,-7.502105)">
      <g
         transform="translate(715.85915,191.99999)"
         id="g51">
        <path
           d="M 0,0 C 0.05,5.73 0.27,28.67 0.33,34.4 M 0,0 c 0.05,5.73 0.27,28.67 0.33,34.4"
           stroke="#000000"
           stroke-width="2"
           fill="none"
           id="path50" />
      </g>
    </g>
  </g>
</svg>
