<svg version="1.1" xmlns="http://www.w3.org/2000/svg" viewBox="0 0 800.969712975832 530.4989720775036" width="800.969712975832" height="530.4989720775036">
  <!-- svg-source:excalidraw -->
  
  <defs>
    <style>
      @font-face {
        font-family: "Virgil";
        src: url("https://excalidraw.com/Virgil.woff2");
      }
      @font-face {
        font-family: "Cascadia";
        src: url("https://excalidraw.com/Cascadia.woff2");
      }
    </style>
  </defs>
  <g stroke-linecap="round"><g transform="translate(208.9794811596429 318.39998626708984) rotate(0 -0.04945751429349343 21.491909974645864)"><path d="M0 0 C-0.02 7.16, -0.08 35.82, -0.1 42.98 M0 0 C-0.02 7.16, -0.08 35.82, -0.1 42.98" stroke="#000000" stroke-width="2" fill="none"></path></g></g><g stroke-linecap="round" transform="translate(386.4493010863959 228.06293818961416) rotate(359.8657848032177 60.35676593570457 56.99545310376985)"><path d="M120.71 57 C120.71 59.29, 120.57 61.59, 120.27 63.87 C119.98 66.14, 119.54 68.41, 118.96 70.64 C118.38 72.86, 117.65 75.07, 116.79 77.21 C115.93 79.35, 114.93 81.45, 113.8 83.48 C112.67 85.51, 111.41 87.49, 110.03 89.37 C108.65 91.26, 107.14 93.08, 105.53 94.79 C103.93 96.5, 102.2 98.14, 100.38 99.66 C98.57 101.18, 96.64 102.6, 94.64 103.9 C92.65 105.2, 90.55 106.4, 88.41 107.46 C86.26 108.53, 84.03 109.48, 81.76 110.29 C79.49 111.1, 77.16 111.79, 74.8 112.33 C72.45 112.88, 70.04 113.3, 67.63 113.58 C65.22 113.85, 62.78 113.99, 60.36 113.99 C57.93 113.99, 55.49 113.85, 53.08 113.58 C50.67 113.3, 48.27 112.88, 45.91 112.33 C43.56 111.79, 41.22 111.1, 38.95 110.29 C36.69 109.48, 34.45 108.53, 32.31 107.46 C30.16 106.4, 28.07 105.2, 26.07 103.9 C24.07 102.6, 22.15 101.18, 20.33 99.66 C18.52 98.14, 16.79 96.5, 15.18 94.79 C13.57 93.08, 12.06 91.26, 10.68 89.37 C9.31 87.49, 8.04 85.51, 6.91 83.48 C5.79 81.45, 4.78 79.35, 3.92 77.21 C3.06 75.07, 2.33 72.86, 1.75 70.64 C1.17 68.41, 0.73 66.14, 0.44 63.87 C0.15 61.59, 0 59.29, 0 57 C0 54.71, 0.15 52.4, 0.44 50.13 C0.73 47.85, 1.17 45.58, 1.75 43.36 C2.33 41.13, 3.06 38.93, 3.92 36.78 C4.78 34.64, 5.79 32.54, 6.91 30.51 C8.04 28.48, 9.31 26.5, 10.68 24.62 C12.06 22.73, 13.57 20.91, 15.18 19.2 C16.79 17.49, 18.52 15.85, 20.33 14.33 C22.15 12.82, 24.07 11.39, 26.07 10.09 C28.07 8.79, 30.16 7.59, 32.31 6.53 C34.45 5.46, 36.69 4.52, 38.95 3.7 C41.22 2.89, 43.56 2.2, 45.91 1.66 C48.27 1.11, 50.67 0.69, 53.08 0.42 C55.49 0.14, 57.93 0, 60.36 0 C62.78 0, 65.22 0.14, 67.63 0.42 C70.04 0.69, 72.45 1.11, 74.8 1.66 C77.16 2.2, 79.49 2.89, 81.76 3.7 C84.03 4.52, 86.26 5.46, 88.41 6.53 C90.55 7.59, 92.65 8.79, 94.64 10.09 C96.64 11.39, 98.57 12.82, 100.38 14.33 C102.2 15.85, 103.93 17.49, 105.53 19.2 C107.14 20.91, 108.65 22.73, 110.03 24.62 C111.41 26.5, 112.67 28.48, 113.8 30.51 C114.93 32.54, 115.93 34.64, 116.79 36.78 C117.65 38.93, 118.38 41.13, 118.96 43.36 C119.54 45.58, 119.98 47.85, 120.27 50.13 C120.57 52.4, 120.71 54.71, 120.71 57" stroke="none" stroke-width="0" fill="#228be6"></path><path d="M120.71 57 C120.71 59.29, 120.57 61.59, 120.27 63.87 C119.98 66.14, 119.54 68.41, 118.96 70.64 C118.38 72.86, 117.65 75.07, 116.79 77.21 C115.93 79.35, 114.93 81.45, 113.8 83.48 C112.67 85.51, 111.41 87.49, 110.03 89.37 C108.65 91.26, 107.14 93.08, 105.53 94.79 C103.93 96.5, 102.2 98.14, 100.38 99.66 C98.57 101.18, 96.64 102.6, 94.64 103.9 C92.65 105.2, 90.55 106.4, 88.41 107.46 C86.26 108.53, 84.03 109.48, 81.76 110.29 C79.49 111.1, 77.16 111.79, 74.8 112.33 C72.45 112.88, 70.04 113.3, 67.63 113.58 C65.22 113.85, 62.78 113.99, 60.36 113.99 C57.93 113.99, 55.49 113.85, 53.08 113.58 C50.67 113.3, 48.27 112.88, 45.91 112.33 C43.56 111.79, 41.22 111.1, 38.95 110.29 C36.69 109.48, 34.45 108.53, 32.31 107.46 C30.16 106.4, 28.07 105.2, 26.07 103.9 C24.07 102.6, 22.15 101.18, 20.33 99.66 C18.52 98.14, 16.79 96.5, 15.18 94.79 C13.57 93.08, 12.06 91.26, 10.68 89.37 C9.31 87.49, 8.04 85.51, 6.91 83.48 C5.79 81.45, 4.78 79.35, 3.92 77.21 C3.06 75.07, 2.33 72.86, 1.75 70.64 C1.17 68.41, 0.73 66.14, 0.44 63.87 C0.15 61.59, 0 59.29, 0 57 C0 54.71, 0.15 52.4, 0.44 50.13 C0.73 47.85, 1.17 45.58, 1.75 43.36 C2.33 41.13, 3.06 38.93, 3.92 36.78 C4.78 34.64, 5.79 32.54, 6.91 30.51 C8.04 28.48, 9.31 26.5, 10.68 24.62 C12.06 22.73, 13.57 20.91, 15.18 19.2 C16.79 17.49, 18.52 15.85, 20.33 14.33 C22.15 12.82, 24.07 11.39, 26.07 10.09 C28.07 8.79, 30.16 7.59, 32.31 6.53 C34.45 5.46, 36.69 4.52, 38.95 3.7 C41.22 2.89, 43.56 2.2, 45.91 1.66 C48.27 1.11, 50.67 0.69, 53.08 0.42 C55.49 0.14, 57.93 0, 60.36 0 C62.78 0, 65.22 0.14, 67.63 0.42 C70.04 0.69, 72.45 1.11, 74.8 1.66 C77.16 2.2, 79.49 2.89, 81.76 3.7 C84.03 4.52, 86.26 5.46, 88.41 6.53 C90.55 7.59, 92.65 8.79, 94.64 10.09 C96.64 11.39, 98.57 12.82, 100.38 14.33 C102.2 15.85, 103.93 17.49, 105.53 19.2 C107.14 20.91, 108.65 22.73, 110.03 24.62 C111.41 26.5, 112.67 28.48, 113.8 30.51 C114.93 32.54, 115.93 34.64, 116.79 36.78 C117.65 38.93, 118.38 41.13, 118.96 43.36 C119.54 45.58, 119.98 47.85, 120.27 50.13 C120.57 52.4, 120.71 54.71, 120.71 57" stroke="#000000" stroke-width="4" fill="none"></path></g><g transform="translate(391.8589852743723 275.19998931884766) rotate(0 55 11.5)"><text x="0" y="19" font-family="Helvetica, Segoe UI Emoji" font-size="20px" fill="#ffff" text-anchor="start" style="white-space: pre;" direction="ltr">Report Field</text></g><g stroke-linecap="round"><g transform="translate(213.6232417375117 228.94349262842218) rotate(89.86292068755618 -0.7640580988814918 135.05653025976176)"><path d="M0 0 C-0.25 45.02, -1.27 225.09, -1.53 270.11 M0 0 C-0.25 45.02, -1.27 225.09, -1.53 270.11" stroke="#000000" stroke-width="4" fill="none"></path></g></g><g stroke-linecap="round" transform="translate(368.059104292927 10) rotate(0 78 72.39999008178711)"><path d="M79 0 L156 73 L79 144.8 L0 73" stroke="none" stroke-width="0" fill="#12b886" fill-rule="evenodd"></path><path d="M79 0 C105.71 25.32, 132.41 50.64, 156 73 M79 0 C104.41 24.09, 129.83 48.19, 156 73 M156 73 C128.95 98.23, 101.89 123.45, 79 144.8 M156 73 C136.96 90.75, 117.92 108.51, 79 144.8 M79 144.8 C53.49 121.61, 27.97 98.42, 0 73 M79 144.8 C58.99 126.61, 38.97 108.42, 0 73 M0 73 C16.45 57.8, 32.91 42.59, 79 0 M0 73 C29.84 45.42, 59.69 17.85, 79 0" stroke="#000000" stroke-width="4" fill="none"></path></g><g transform="translate(373.059104292927 70.89999008178711) rotate(0 73 11.5)"><text x="73" y="19" font-family="Helvetica, Segoe UI Emoji" font-size="20px" fill="#ffff" text-anchor="middle" style="white-space: pre;" direction="ltr">Report</text></g><g stroke-linecap="round" transform="translate(145.65907987886447 234.9999771118164) rotate(0 67.20001220703125 41.20000457763672)"><path d="M0 0 L134.4 0 L134.4 82.4 L0 82.4" stroke="none" stroke-width="0" fill="#228be6"></path><path d="M0 0 C38.01 0, 76.02 0, 134.4 0 M0 0 C51.18 0, 102.36 0, 134.4 0 M134.4 0 C134.4 30.36, 134.4 60.73, 134.4 82.4 M134.4 0 C134.4 19.16, 134.4 38.32, 134.4 82.4 M134.4 82.4 C106.06 82.4, 77.72 82.4, 0 82.4 M134.4 82.4 C92.36 82.4, 50.32 82.4, 0 82.4 M0 82.4 C0 61.89, 0 41.39, 0 0 M0 82.4 C0 54.94, 0 27.47, 0 0" stroke="#000000" stroke-width="4" fill="none"></path></g><g stroke-linecap="round"><g transform="translate(347.2591164999582 365.99999237060547) rotate(0 0 15.200027465820312)"><path d="M0 0 C0 5.07, 0 25.33, 0 30.4 M0 0 C0 5.07, 0 25.33, 0 30.4" stroke="#000000" stroke-width="4" fill="none"></path></g></g><g stroke-linecap="round"><g transform="translate(77.65914091402072 364.4000473022461) rotate(0 0.399993896484375 16)"><path d="M0 0 C0.13 5.33, 0.67 26.67, 0.8 32 M0 0 C0.13 5.33, 0.67 26.67, 0.8 32" stroke="#000000" stroke-width="4" fill="none"></path></g></g><g transform="translate(153.40038506182628 268.241127911736) rotate(0 60 11.5)"><text x="0" y="19" font-family="Helvetica, Segoe UI Emoji" font-size="20px" fill="#ffffff" text-anchor="start" style="white-space: pre;" direction="ltr"> Report Table</text></g><g stroke-linecap="round" transform="translate(9.99996603209803 394.70097002278953) rotate(359.8657848032177 68 61.49894300211281)"><path d="M136 61.5 C136 63.97, 135.83 66.46, 135.5 68.91 C135.17 71.36, 134.68 73.82, 134.02 76.22 C133.37 78.62, 132.55 81, 131.58 83.31 C130.61 85.62, 129.48 87.89, 128.21 90.08 C126.94 92.27, 125.51 94.4, 123.96 96.43 C122.41 98.47, 120.71 100.43, 118.9 102.28 C117.09 104.13, 115.14 105.89, 113.09 107.53 C111.05 109.17, 108.88 110.71, 106.63 112.11 C104.38 113.52, 102.02 114.81, 99.6 115.95 C97.18 117.1, 94.67 118.13, 92.11 119 C89.56 119.88, 86.93 120.62, 84.27 121.21 C81.62 121.8, 78.91 122.25, 76.2 122.55 C73.48 122.85, 70.73 123, 68 123 C65.27 123, 62.52 122.85, 59.8 122.55 C57.09 122.25, 54.38 121.8, 51.73 121.21 C49.07 120.62, 46.44 119.88, 43.89 119 C41.33 118.13, 38.82 117.1, 36.4 115.95 C33.98 114.81, 31.62 113.52, 29.37 112.11 C27.12 110.71, 24.95 109.17, 22.91 107.53 C20.86 105.89, 18.91 104.13, 17.1 102.28 C15.29 100.43, 13.59 98.47, 12.04 96.43 C10.49 94.4, 9.06 92.27, 7.79 90.08 C6.52 87.89, 5.39 85.62, 4.42 83.31 C3.45 81, 2.63 78.62, 1.98 76.22 C1.32 73.82, 0.83 71.36, 0.5 68.91 C0.17 66.46, 0 63.97, 0 61.5 C0 59.03, 0.17 56.54, 0.5 54.09 C0.83 51.63, 1.32 49.18, 1.98 46.78 C2.63 44.38, 3.45 42, 4.42 39.69 C5.39 37.38, 6.52 35.11, 7.79 32.92 C9.06 30.73, 10.49 28.6, 12.04 26.56 C13.59 24.53, 15.29 22.57, 17.1 20.72 C18.91 18.87, 20.86 17.1, 22.91 15.47 C24.95 13.83, 27.12 12.29, 29.37 10.89 C31.62 9.48, 33.98 8.19, 36.4 7.04 C38.82 5.9, 41.33 4.87, 43.89 4 C46.44 3.12, 49.07 2.38, 51.73 1.79 C54.38 1.2, 57.09 0.75, 59.8 0.45 C62.52 0.15, 65.27 0, 68 0 C70.73 0, 73.48 0.15, 76.2 0.45 C78.91 0.75, 81.62 1.2, 84.27 1.79 C86.93 2.38, 89.56 3.12, 92.11 4 C94.67 4.87, 97.18 5.9, 99.6 7.04 C102.02 8.19, 104.38 9.48, 106.63 10.89 C108.88 12.29, 111.05 13.83, 113.09 15.47 C115.14 17.1, 117.09 18.87, 118.9 20.72 C120.71 22.57, 122.41 24.53, 123.96 26.56 C125.51 28.6, 126.94 30.73, 128.21 32.92 C129.48 35.11, 130.61 37.38, 131.58 39.69 C132.55 42, 133.37 44.38, 134.02 46.78 C134.68 49.18, 135.17 51.63, 135.5 54.09 C135.83 56.54, 136 59.03, 136 61.5" stroke="none" stroke-width="0" fill="#fa5252"></path><path d="M136 61.5 C136 63.97, 135.83 66.46, 135.5 68.91 C135.17 71.36, 134.68 73.82, 134.02 76.22 C133.37 78.62, 132.55 81, 131.58 83.31 C130.61 85.62, 129.48 87.89, 128.21 90.08 C126.94 92.27, 125.51 94.4, 123.96 96.43 C122.41 98.47, 120.71 100.43, 118.9 102.28 C117.09 104.13, 115.14 105.89, 113.09 107.53 C111.05 109.17, 108.88 110.71, 106.63 112.11 C104.38 113.52, 102.02 114.81, 99.6 115.95 C97.18 117.1, 94.67 118.13, 92.11 119 C89.56 119.88, 86.93 120.62, 84.27 121.21 C81.62 121.8, 78.91 122.25, 76.2 122.55 C73.48 122.85, 70.73 123, 68 123 C65.27 123, 62.52 122.85, 59.8 122.55 C57.09 122.25, 54.38 121.8, 51.73 121.21 C49.07 120.62, 46.44 119.88, 43.89 119 C41.33 118.13, 38.82 117.1, 36.4 115.95 C33.98 114.81, 31.62 113.52, 29.37 112.11 C27.12 110.71, 24.95 109.17, 22.91 107.53 C20.86 105.89, 18.91 104.13, 17.1 102.28 C15.29 100.43, 13.59 98.47, 12.04 96.43 C10.49 94.4, 9.06 92.27, 7.79 90.08 C6.52 87.89, 5.39 85.62, 4.42 83.31 C3.45 81, 2.63 78.62, 1.98 76.22 C1.32 73.82, 0.83 71.36, 0.5 68.91 C0.17 66.46, 0 63.97, 0 61.5 C0 59.03, 0.17 56.54, 0.5 54.09 C0.83 51.63, 1.32 49.18, 1.98 46.78 C2.63 44.38, 3.45 42, 4.42 39.69 C5.39 37.38, 6.52 35.11, 7.79 32.92 C9.06 30.73, 10.49 28.6, 12.04 26.56 C13.59 24.53, 15.29 22.57, 17.1 20.72 C18.91 18.87, 20.86 17.1, 22.91 15.47 C24.95 13.83, 27.12 12.29, 29.37 10.89 C31.62 9.48, 33.98 8.19, 36.4 7.04 C38.82 5.9, 41.33 4.87, 43.89 4 C46.44 3.12, 49.07 2.38, 51.73 1.79 C54.38 1.2, 57.09 0.75, 59.8 0.45 C62.52 0.15, 65.27 0, 68 0 C70.73 0, 73.48 0.15, 76.2 0.45 C78.91 0.75, 81.62 1.2, 84.27 1.79 C86.93 2.38, 89.56 3.12, 92.11 4 C94.67 4.87, 97.18 5.9, 99.6 7.04 C102.02 8.19, 104.38 9.48, 106.63 10.89 C108.88 12.29, 111.05 13.83, 113.09 15.47 C115.14 17.1, 117.09 18.87, 118.9 20.72 C120.71 22.57, 122.41 24.53, 123.96 26.56 C125.51 28.6, 126.94 30.73, 128.21 32.92 C129.48 35.11, 130.61 37.38, 131.58 39.69 C132.55 42, 133.37 44.38, 134.02 46.78 C134.68 49.18, 135.17 51.63, 135.5 54.09 C135.83 56.54, 136 59.03, 136 61.5" stroke="#000000" stroke-width="4" fill="none"></path></g><g stroke-linecap="round" transform="translate(278.40005148131667 397.50104936849266) rotate(359.8657848032177 67.85912605379787 61.49894300211281)"><path d="M135.72 61.5 C135.72 63.97, 135.55 66.46, 135.22 68.91 C134.89 71.36, 134.4 73.82, 133.75 76.22 C133.09 78.62, 132.28 81, 131.31 83.31 C130.34 85.62, 129.21 87.89, 127.95 90.08 C126.68 92.27, 125.25 94.4, 123.71 96.43 C122.16 98.47, 120.46 100.43, 118.65 102.28 C116.84 104.13, 114.9 105.89, 112.86 107.53 C110.82 109.17, 108.65 110.71, 106.41 112.11 C104.16 113.52, 101.81 114.81, 99.39 115.95 C96.98 117.1, 94.47 118.13, 91.92 119 C89.37 119.88, 86.75 120.62, 84.1 121.21 C81.45 121.8, 78.75 122.25, 76.04 122.55 C73.33 122.85, 70.59 123, 67.86 123 C65.13 123, 62.39 122.85, 59.68 122.55 C56.97 122.25, 54.27 121.8, 51.62 121.21 C48.97 120.62, 46.35 119.88, 43.8 119 C41.25 118.13, 38.74 117.1, 36.32 115.95 C33.91 114.81, 31.55 113.52, 29.31 112.11 C27.07 110.71, 24.9 109.17, 22.86 107.53 C20.82 105.89, 18.87 104.13, 17.07 102.28 C15.26 100.43, 13.56 98.47, 12.01 96.43 C10.46 94.4, 9.04 92.27, 7.77 90.08 C6.51 87.89, 5.38 85.62, 4.41 83.31 C3.44 81, 2.62 78.62, 1.97 76.22 C1.32 73.82, 0.82 71.36, 0.49 68.91 C0.17 66.46, 0 63.97, 0 61.5 C0 59.03, 0.17 56.54, 0.49 54.09 C0.82 51.63, 1.32 49.18, 1.97 46.78 C2.62 44.38, 3.44 42, 4.41 39.69 C5.38 37.38, 6.51 35.11, 7.77 32.92 C9.04 30.73, 10.46 28.6, 12.01 26.56 C13.56 24.53, 15.26 22.57, 17.07 20.72 C18.87 18.87, 20.82 17.1, 22.86 15.47 C24.9 13.83, 27.07 12.29, 29.31 10.89 C31.55 9.48, 33.91 8.19, 36.32 7.04 C38.74 5.9, 41.25 4.87, 43.8 4 C46.35 3.12, 48.97 2.38, 51.62 1.79 C54.27 1.2, 56.97 0.75, 59.68 0.45 C62.39 0.15, 65.13 0, 67.86 0 C70.59 0, 73.33 0.15, 76.04 0.45 C78.75 0.75, 81.45 1.2, 84.1 1.79 C86.75 2.38, 89.37 3.12, 91.92 4 C94.47 4.87, 96.98 5.9, 99.39 7.04 C101.81 8.19, 104.16 9.48, 106.41 10.89 C108.65 12.29, 110.82 13.83, 112.86 15.47 C114.9 17.1, 116.84 18.87, 118.65 20.72 C120.46 22.57, 122.16 24.53, 123.71 26.56 C125.25 28.6, 126.68 30.73, 127.95 32.92 C129.21 35.11, 130.34 37.38, 131.31 39.69 C132.28 42, 133.09 44.38, 133.75 46.78 C134.4 49.18, 134.89 51.63, 135.22 54.09 C135.55 56.54, 135.72 59.03, 135.72 61.5" stroke="none" stroke-width="0" fill="#fa5252"></path><path d="M135.72 61.5 C135.72 63.97, 135.55 66.46, 135.22 68.91 C134.89 71.36, 134.4 73.82, 133.75 76.22 C133.09 78.62, 132.28 81, 131.31 83.31 C130.34 85.62, 129.21 87.89, 127.95 90.08 C126.68 92.27, 125.25 94.4, 123.71 96.43 C122.16 98.47, 120.46 100.43, 118.65 102.28 C116.84 104.13, 114.9 105.89, 112.86 107.53 C110.82 109.17, 108.65 110.71, 106.41 112.11 C104.16 113.52, 101.81 114.81, 99.39 115.95 C96.98 117.1, 94.47 118.13, 91.92 119 C89.37 119.88, 86.75 120.62, 84.1 121.21 C81.45 121.8, 78.75 122.25, 76.04 122.55 C73.33 122.85, 70.59 123, 67.86 123 C65.13 123, 62.39 122.85, 59.68 122.55 C56.97 122.25, 54.27 121.8, 51.62 121.21 C48.97 120.62, 46.35 119.88, 43.8 119 C41.25 118.13, 38.74 117.1, 36.32 115.95 C33.91 114.81, 31.55 113.52, 29.31 112.11 C27.07 110.71, 24.9 109.17, 22.86 107.53 C20.82 105.89, 18.87 104.13, 17.07 102.28 C15.26 100.43, 13.56 98.47, 12.01 96.43 C10.46 94.4, 9.04 92.27, 7.77 90.08 C6.51 87.89, 5.38 85.62, 4.41 83.31 C3.44 81, 2.62 78.62, 1.97 76.22 C1.32 73.82, 0.82 71.36, 0.49 68.91 C0.17 66.46, 0 63.97, 0 61.5 C0 59.03, 0.17 56.54, 0.49 54.09 C0.82 51.63, 1.32 49.18, 1.97 46.78 C2.62 44.38, 3.44 42, 4.41 39.69 C5.38 37.38, 6.51 35.11, 7.77 32.92 C9.04 30.73, 10.46 28.6, 12.01 26.56 C13.56 24.53, 15.26 22.57, 17.07 20.72 C18.87 18.87, 20.82 17.1, 22.86 15.47 C24.9 13.83, 27.07 12.29, 29.31 10.89 C31.55 9.48, 33.91 8.19, 36.32 7.04 C38.74 5.9, 41.25 4.87, 43.8 4 C46.35 3.12, 48.97 2.38, 51.62 1.79 C54.27 1.2, 56.97 0.75, 59.68 0.45 C62.39 0.15, 65.13 0, 67.86 0 C70.59 0, 73.33 0.15, 76.04 0.45 C78.75 0.75, 81.45 1.2, 84.1 1.79 C86.75 2.38, 89.37 3.12, 91.92 4 C94.47 4.87, 96.98 5.9, 99.39 7.04 C101.81 8.19, 104.16 9.48, 106.41 10.89 C108.65 12.29, 110.82 13.83, 112.86 15.47 C114.9 17.1, 116.84 18.87, 118.65 20.72 C120.46 22.57, 122.16 24.53, 123.71 26.56 C125.25 28.6, 126.68 30.73, 127.95 32.92 C129.21 35.11, 130.34 37.38, 131.31 39.69 C132.28 42, 133.09 44.38, 133.75 46.78 C134.4 49.18, 134.89 51.63, 135.22 54.09 C135.55 56.54, 135.72 59.03, 135.72 61.5" stroke="#000000" stroke-width="4" fill="none"></path></g><g transform="translate(284.7590859823801 446.6999740600586) rotate(0 61.5 11.5)"><text x="0" y="19" font-family="Helvetica, Segoe UI Emoji" font-size="20px" fill="#ffffff" text-anchor="start" style="white-space: pre;" direction="ltr">Table Column</text></g><g transform="translate(16.75914701753635 445.1000289916992) rotate(0 61.5 11.5)"><text x="0" y="19" font-family="Helvetica, Segoe UI Emoji" font-size="20px" fill="#ffff" text-anchor="start" style="white-space: pre;" direction="ltr">Table Column</text></g><g stroke-linecap="round" transform="translate(694.433268147623 247.0575501921553) rotate(349.49460188942567 28.405699134348822 27.875079781540137)"><path d="M56.81 27.88 C56.81 29.49, 56.67 31.13, 56.38 32.72 C56.09 34.3, 55.66 35.89, 55.1 37.41 C54.54 38.93, 53.83 40.42, 53.01 41.81 C52.18 43.21, 51.22 44.56, 50.17 45.79 C49.11 47.03, 47.92 48.19, 46.66 49.23 C45.41 50.27, 44.03 51.21, 42.61 52.02 C41.18 52.82, 39.67 53.52, 38.12 54.07 C36.58 54.62, 34.96 55.05, 33.34 55.33 C31.72 55.61, 30.05 55.75, 28.41 55.75 C26.76 55.75, 25.09 55.61, 23.47 55.33 C21.85 55.05, 20.24 54.62, 18.69 54.07 C17.15 53.52, 15.63 52.82, 14.2 52.02 C12.78 51.21, 11.41 50.27, 10.15 49.23 C8.89 48.19, 7.7 47.03, 6.65 45.79 C5.59 44.56, 4.63 43.21, 3.81 41.81 C2.98 40.42, 2.28 38.93, 1.71 37.41 C1.15 35.89, 0.72 34.3, 0.43 32.72 C0.15 31.13, 0 29.49, 0 27.88 C0 26.26, 0.15 24.62, 0.43 23.03 C0.72 21.45, 1.15 19.86, 1.71 18.34 C2.28 16.83, 2.98 15.33, 3.81 13.94 C4.63 12.54, 5.59 11.19, 6.65 9.96 C7.7 8.72, 8.89 7.56, 10.15 6.52 C11.41 5.48, 12.78 4.54, 14.2 3.73 C15.63 2.93, 17.15 2.23, 18.69 1.68 C20.24 1.13, 21.85 0.7, 23.47 0.42 C25.09 0.14, 26.76 0, 28.41 0 C30.05 0, 31.72 0.14, 33.34 0.42 C34.96 0.7, 36.58 1.13, 38.12 1.68 C39.67 2.23, 41.18 2.93, 42.61 3.73 C44.03 4.54, 45.41 5.48, 46.66 6.52 C47.92 7.56, 49.11 8.72, 50.17 9.96 C51.22 11.19, 52.18 12.54, 53.01 13.94 C53.83 15.33, 54.54 16.83, 55.1 18.34 C55.66 19.86, 56.09 21.45, 56.38 23.03 C56.67 24.62, 56.74 27.07, 56.81 27.88 C56.88 28.68, 56.88 27.07, 56.81 27.88" stroke="none" stroke-width="0" fill="#bfc548"></path><path d="M56.81 27.88 C56.81 29.49, 56.67 31.13, 56.38 32.72 C56.09 34.3, 55.66 35.89, 55.1 37.41 C54.54 38.93, 53.83 40.42, 53.01 41.81 C52.18 43.21, 51.22 44.56, 50.17 45.79 C49.11 47.03, 47.92 48.19, 46.66 49.23 C45.41 50.27, 44.03 51.21, 42.61 52.02 C41.18 52.82, 39.67 53.52, 38.12 54.07 C36.58 54.62, 34.96 55.05, 33.34 55.33 C31.72 55.61, 30.05 55.75, 28.41 55.75 C26.76 55.75, 25.09 55.61, 23.47 55.33 C21.85 55.05, 20.24 54.62, 18.69 54.07 C17.15 53.52, 15.63 52.82, 14.2 52.02 C12.78 51.21, 11.41 50.27, 10.15 49.23 C8.89 48.19, 7.7 47.03, 6.65 45.79 C5.59 44.56, 4.63 43.21, 3.81 41.81 C2.98 40.42, 2.28 38.93, 1.71 37.41 C1.15 35.89, 0.72 34.3, 0.43 32.72 C0.15 31.13, 0 29.49, 0 27.88 C0 26.26, 0.15 24.62, 0.43 23.03 C0.72 21.45, 1.15 19.86, 1.71 18.34 C2.28 16.83, 2.98 15.33, 3.81 13.94 C4.63 12.54, 5.59 11.19, 6.65 9.96 C7.7 8.72, 8.89 7.56, 10.15 6.52 C11.41 5.48, 12.78 4.54, 14.2 3.73 C15.63 2.93, 17.15 2.23, 18.69 1.68 C20.24 1.13, 21.85 0.7, 23.47 0.42 C25.09 0.14, 26.76 0, 28.41 0 C30.05 0, 31.72 0.14, 33.34 0.42 C34.96 0.7, 36.58 1.13, 38.12 1.68 C39.67 2.23, 41.18 2.93, 42.61 3.73 C44.03 4.54, 45.41 5.48, 46.66 6.52 C47.92 7.56, 49.11 8.72, 50.17 9.96 C51.22 11.19, 52.18 12.54, 53.01 13.94 C53.83 15.33, 54.54 16.83, 55.1 18.34 C55.66 19.86, 56.09 21.45, 56.38 23.03 C56.67 24.62, 56.74 27.07, 56.81 27.88 C56.88 28.68, 56.88 27.07, 56.81 27.88" stroke="#bfc548" stroke-width="1" fill="none"></path></g><g stroke-linecap="round"><g transform="translate(704.6342234977251 290.1825557858453) rotate(349.49460188942567 22.661735869555798 -13.818463752284913)" fill-rule="evenodd"><path d="M0 0 L0.15 0.53 L-4.45 -6.5 L-4.78 -13.44 L-2.39 -18.3 L2.45 -22.24 L11.81 -24.68 L34.93 -21.55 L39.33 -22.16 L42.62 -23.55 L47.52 -27.41 L50.33 -32.73 L48.77 -19.96 L44.97 -11.55 L37.16 -3.55 L30.46 0.77 L23.07 4.18 L16.15 5.27 L9.79 4.87 L4.16 2.81 L-0.51 0.03 L0 0" stroke="none" stroke-width="0" fill="#ffffff" fill-rule="evenodd"></path><path d="M0 0 C-0.04 0.04, 0.51 1.31, -0.23 0.22 C-0.98 -0.86, -3.7 -4.22, -4.45 -6.5 C-5.21 -8.78, -5.13 -11.48, -4.78 -13.44 C-4.44 -15.41, -3.59 -16.83, -2.39 -18.3 C-1.18 -19.76, 0.08 -21.17, 2.45 -22.24 C4.81 -23.3, 8.7 -24.4, 11.81 -24.68 C14.92 -24.95, 17.24 -24.4, 21.1 -23.88 C24.95 -23.36, 31.35 -21.61, 34.93 -21.55 C38.52 -21.5, 40.52 -22.57, 42.62 -23.55 C44.71 -24.53, 46.23 -25.88, 47.52 -27.41 C48.8 -28.94, 50.12 -33.97, 50.33 -32.73 C50.54 -31.49, 49.66 -23.48, 48.77 -19.96 C47.87 -16.43, 46.9 -14.29, 44.97 -11.55 C43.03 -8.82, 40.81 -6.17, 37.16 -3.55 C33.51 -0.93, 27.63 2.77, 23.07 4.18 C18.51 5.58, 13.6 5.47, 9.79 4.87 C5.97 4.27, 1.81 1.4, 0.17 0.59 C-1.46 -0.23, 0.03 0.1, 0 0 M0 0 C-0.04 0.04, 0.51 1.31, -0.23 0.22 C-0.98 -0.86, -3.7 -4.22, -4.45 -6.5 C-5.21 -8.78, -5.13 -11.48, -4.78 -13.44 C-4.44 -15.41, -3.59 -16.83, -2.39 -18.3 C-1.18 -19.76, 0.08 -21.17, 2.45 -22.24 C4.81 -23.3, 8.7 -24.4, 11.81 -24.68 C14.92 -24.95, 17.24 -24.4, 21.1 -23.88 C24.95 -23.36, 31.35 -21.61, 34.93 -21.55 C38.52 -21.5, 40.52 -22.57, 42.62 -23.55 C44.71 -24.53, 46.23 -25.88, 47.52 -27.41 C48.8 -28.94, 50.12 -33.97, 50.33 -32.73 C50.54 -31.49, 49.66 -23.48, 48.77 -19.96 C47.87 -16.43, 46.9 -14.29, 44.97 -11.55 C43.03 -8.82, 40.81 -6.17, 37.16 -3.55 C33.51 -0.93, 27.63 2.77, 23.07 4.18 C18.51 5.58, 13.6 5.47, 9.79 4.87 C5.97 4.27, 1.81 1.4, 0.17 0.59 C-1.46 -0.23, 0.03 0.1, 0 0" stroke="#82c91e" stroke-width="1" fill="none"></path></g></g><g stroke-linecap="round"><g transform="translate(709.3150726937902 288.00565102883996) rotate(349.49460188942567 14.967938169838476 -4.8574987692893785)" fill-rule="evenodd"><path d="M0 0 L9.1 -0.7 L17.64 -2.41 L26.24 -5.48 L32.69 -9.55 L35.82 -13.47 L35.79 -12.31 L32.94 -7.95 L29.02 -3.92 L23.67 -0.51 L9.99 3.23 L3.36 3.67 L-2.93 3.43 L-5.27 1.83 L-6.07 0.24 L0 0" stroke="none" stroke-width="0" fill="#82c91e" fill-rule="evenodd"></path><path d="M0 0 C0.66 -0.06, 2.47 -0.21, 3.99 -0.33 C5.5 -0.45, 6.83 -0.36, 9.1 -0.7 C11.38 -1.05, 14.78 -1.61, 17.64 -2.41 C20.49 -3.2, 24.1 -4.52, 26.24 -5.48 C28.38 -6.45, 29.41 -7.53, 30.49 -8.21 C31.56 -8.89, 32.04 -8.98, 32.69 -9.55 C33.34 -10.12, 33.85 -10.96, 34.38 -11.61 C34.9 -12.26, 35.59 -13.35, 35.82 -13.47 C36.06 -13.59, 36.27 -13.23, 35.79 -12.31 C35.31 -11.39, 33.57 -8.83, 32.94 -7.95 C32.32 -7.07, 32.34 -7.36, 32.03 -7.04 C31.72 -6.72, 31.58 -6.55, 31.08 -6.03 C30.58 -5.51, 30.25 -4.84, 29.02 -3.92 C27.78 -3, 25.76 -1.48, 23.67 -0.51 C21.58 0.45, 18.74 1.25, 16.46 1.88 C14.18 2.5, 12.17 2.93, 9.99 3.23 C7.8 3.53, 5.51 3.64, 3.36 3.67 C1.21 3.7, -1.36 4, -2.93 3.43 C-4.5 2.85, -6.56 0.81, -6.07 0.24 C-5.58 -0.33, -1.01 0.04, 0 0 M0 0 C0.66 -0.06, 2.47 -0.21, 3.99 -0.33 C5.5 -0.45, 6.83 -0.36, 9.1 -0.7 C11.38 -1.05, 14.78 -1.61, 17.64 -2.41 C20.49 -3.2, 24.1 -4.52, 26.24 -5.48 C28.38 -6.45, 29.41 -7.53, 30.49 -8.21 C31.56 -8.89, 32.04 -8.98, 32.69 -9.55 C33.34 -10.12, 33.85 -10.96, 34.38 -11.61 C34.9 -12.26, 35.59 -13.35, 35.82 -13.47 C36.06 -13.59, 36.27 -13.23, 35.79 -12.31 C35.31 -11.39, 33.57 -8.83, 32.94 -7.95 C32.32 -7.07, 32.34 -7.36, 32.03 -7.04 C31.72 -6.72, 31.58 -6.55, 31.08 -6.03 C30.58 -5.51, 30.25 -4.84, 29.02 -3.92 C27.78 -3, 25.76 -1.48, 23.67 -0.51 C21.58 0.45, 18.74 1.25, 16.46 1.88 C14.18 2.5, 12.17 2.93, 9.99 3.23 C7.8 3.53, 5.51 3.64, 3.36 3.67 C1.21 3.7, -1.36 4, -2.93 3.43 C-4.5 2.85, -6.56 0.81, -6.07 0.24 C-5.58 -0.33, -1.01 0.04, 0 0" stroke="#82c91e" stroke-width="1" fill="none"></path></g></g><g stroke-linecap="round" transform="translate(701.5732986260657 291.5720173613825) rotate(349.49460188942567 2.114549177230117 2.0403652252309996)"><path d="M4.23 2.04 C4.23 2.16, 4.22 2.28, 4.2 2.39 C4.18 2.51, 4.14 2.63, 4.1 2.74 C4.06 2.85, 4.01 2.96, 3.95 3.06 C3.88 3.16, 3.81 3.26, 3.73 3.35 C3.66 3.44, 3.57 3.53, 3.47 3.6 C3.38 3.68, 3.28 3.75, 3.17 3.81 C3.07 3.87, 2.95 3.92, 2.84 3.96 C2.72 4, 2.6 4.03, 2.48 4.05 C2.36 4.07, 2.24 4.08, 2.11 4.08 C1.99 4.08, 1.87 4.07, 1.75 4.05 C1.63 4.03, 1.51 4, 1.39 3.96 C1.28 3.92, 1.16 3.87, 1.06 3.81 C0.95 3.75, 0.85 3.68, 0.76 3.6 C0.66 3.53, 0.57 3.44, 0.49 3.35 C0.42 3.26, 0.34 3.16, 0.28 3.06 C0.22 2.96, 0.17 2.85, 0.13 2.74 C0.09 2.63, 0.05 2.51, 0.03 2.39 C0.01 2.28, 0 2.16, 0 2.04 C0 1.92, 0.01 1.8, 0.03 1.69 C0.05 1.57, 0.09 1.45, 0.13 1.34 C0.17 1.23, 0.22 1.12, 0.28 1.02 C0.34 0.92, 0.42 0.82, 0.49 0.73 C0.57 0.64, 0.66 0.55, 0.76 0.48 C0.85 0.4, 0.95 0.33, 1.06 0.27 C1.16 0.21, 1.28 0.16, 1.39 0.12 C1.51 0.08, 1.63 0.05, 1.75 0.03 C1.87 0.01, 1.99 0, 2.11 0 C2.24 0, 2.36 0.01, 2.48 0.03 C2.6 0.05, 2.72 0.08, 2.84 0.12 C2.95 0.16, 3.07 0.21, 3.17 0.27 C3.28 0.33, 3.38 0.4, 3.47 0.48 C3.57 0.55, 3.66 0.64, 3.73 0.73 C3.81 0.82, 3.88 0.92, 3.95 1.02 C4.01 1.12, 4.06 1.23, 4.1 1.34 C4.14 1.45, 4.18 1.57, 4.2 1.69 C4.22 1.8, 4.22 1.98, 4.23 2.04 C4.23 2.1, 4.23 1.98, 4.23 2.04" stroke="none" stroke-width="0" fill="#ffffff"></path><path d="M4.23 2.04 C4.23 2.16, 4.22 2.28, 4.2 2.39 C4.18 2.51, 4.14 2.63, 4.1 2.74 C4.06 2.85, 4.01 2.96, 3.95 3.06 C3.88 3.16, 3.81 3.26, 3.73 3.35 C3.66 3.44, 3.57 3.53, 3.47 3.6 C3.38 3.68, 3.28 3.75, 3.17 3.81 C3.07 3.87, 2.95 3.92, 2.84 3.96 C2.72 4, 2.6 4.03, 2.48 4.05 C2.36 4.07, 2.24 4.08, 2.11 4.08 C1.99 4.08, 1.87 4.07, 1.75 4.05 C1.63 4.03, 1.51 4, 1.39 3.96 C1.28 3.92, 1.16 3.87, 1.06 3.81 C0.95 3.75, 0.85 3.68, 0.76 3.6 C0.66 3.53, 0.57 3.44, 0.49 3.35 C0.42 3.26, 0.34 3.16, 0.28 3.06 C0.22 2.96, 0.17 2.85, 0.13 2.74 C0.09 2.63, 0.05 2.51, 0.03 2.39 C0.01 2.28, 0 2.16, 0 2.04 C0 1.92, 0.01 1.8, 0.03 1.69 C0.05 1.57, 0.09 1.45, 0.13 1.34 C0.17 1.23, 0.22 1.12, 0.28 1.02 C0.34 0.92, 0.42 0.82, 0.49 0.73 C0.57 0.64, 0.66 0.55, 0.76 0.48 C0.85 0.4, 0.95 0.33, 1.06 0.27 C1.16 0.21, 1.28 0.16, 1.39 0.12 C1.51 0.08, 1.63 0.05, 1.75 0.03 C1.87 0.01, 1.99 0, 2.11 0 C2.24 0, 2.36 0.01, 2.48 0.03 C2.6 0.05, 2.72 0.08, 2.84 0.12 C2.95 0.16, 3.07 0.21, 3.17 0.27 C3.28 0.33, 3.38 0.4, 3.47 0.48 C3.57 0.55, 3.66 0.64, 3.73 0.73 C3.81 0.82, 3.88 0.92, 3.95 1.02 C4.01 1.12, 4.06 1.23, 4.1 1.34 C4.14 1.45, 4.18 1.57, 4.2 1.69 C4.22 1.8, 4.22 1.98, 4.23 2.04 C4.23 2.1, 4.23 1.98, 4.23 2.04" stroke="#82c91e" stroke-width="1" fill="none"></path></g><g stroke-linecap="round"><g transform="translate(752.1116533780933 226.36300058396824) rotate(0 12.336303887493386 11.719788259517827)" fill-rule="evenodd"><path d="M0 0 L1.14 16.45 L3.16 20.73 L7.78 22.6 L13.45 23.17 L20.17 23.43 L24.63 22.38 L22.05 18.8 L7.75 5.92 L0 0" stroke="none" stroke-width="0" fill="#e64980" fill-rule="evenodd"></path><path d="M0 0 C0.06 1.85, -0.16 7.63, 0.37 11.08 C0.89 14.54, 0.98 18.71, 3.16 20.73 C5.34 22.74, 9.87 22.89, 13.45 23.17 C17.03 23.44, 24.05 23.86, 24.63 22.38 C25.21 20.9, 19.73 17.01, 16.92 14.27 C14.11 11.53, 10.57 8.29, 7.75 5.92 C4.93 3.54, 1.29 0.99, 0 0 M0 0 C0.06 1.85, -0.16 7.63, 0.37 11.08 C0.89 14.54, 0.98 18.71, 3.16 20.73 C5.34 22.74, 9.87 22.89, 13.45 23.17 C17.03 23.44, 24.05 23.86, 24.63 22.38 C25.21 20.9, 19.73 17.01, 16.92 14.27 C14.11 11.53, 10.57 8.29, 7.75 5.92 C4.93 3.54, 1.29 0.99, 0 0" stroke="#000000" stroke-width="1" fill="none"></path></g></g><g stroke-linecap="round"><g transform="translate(752.3654167450961 226.58242088236608) rotate(0 -35.72290924309789 0)"><path d="M0 0 C-11.91 0, -59.54 0, -71.45 0 M0 0 C-11.91 0, -59.54 0, -71.45 0" stroke="#000000" stroke-width="1" fill="none"></path></g></g><g stroke-linecap="round"><g transform="translate(680.7539336205793 226.87194224461297) rotate(0 0 68.98820192798769)"><path d="M0 0 C0 23, 0 114.98, 0 137.98 M0 0 C0 23, 0 114.98, 0 137.98" stroke="#000000" stroke-width="1" fill="none"></path></g></g><g stroke-linecap="round"><g transform="translate(680.1994836140964 364.3879722098966) rotate(0 48.27338652075741 0)"><path d="M0 0 C16.09 0, 80.46 0, 96.55 0 M0 0 C16.09 0, 80.46 0, 96.55 0" stroke="#000000" stroke-width="1" fill="none"></path></g></g><g stroke-linecap="round"><g transform="translate(777.0816917100112 364.60646817637553) rotate(0 0.038985481988106585 -58.16630608765058)"><path d="M0 0 C0.01 -19.39, 0.06 -96.94, 0.08 -116.33 M0 0 C0.01 -19.39, 0.06 -96.94, 0.08 -116.33" stroke="#000000" stroke-width="1" fill="none"></path></g></g><g stroke-linecap="round"><g transform="translate(751.2520778977873 226.33251376566824) rotate(0 12.77344850947361 11.59239112717546)"><path d="M0 0 C4.26 3.86, 21.29 19.32, 25.55 23.18 M0 0 C4.26 3.86, 21.29 19.32, 25.55 23.18" stroke="#000000" stroke-width="1" fill="none"></path></g></g><g stroke-linecap="round"><g transform="translate(683.4750925772112 307.3330406690536) rotate(0 46.87800230339468 18.79358160405593)" fill-rule="evenodd"><path d="M0 0 L85.82 0.12 L102.73 0.95 L105.93 5.82 L107.05 10.66 L107.49 17.95 L106.52 30.81 L103.17 36.53 L95.68 37.24 L8.11 37.52 L-7.81 36.3 L-12.12 30.99 L-13.4 26.07 L-13.06 10.83 L-11.57 5.8 L-8.99 2.37 L0 0" stroke="none" stroke-width="0" fill="#e64980" fill-rule="evenodd"></path><path d="M0 0 C7.46 0, 28.84 -0.06, 44.79 0 C60.73 0.06, 85.84 -0.08, 95.68 0.34 C105.52 0.76, 101.93 0.82, 103.82 2.54 C105.72 4.26, 106.48 6.86, 107.05 10.66 C107.61 14.47, 107.61 21.38, 107.22 25.39 C106.82 29.4, 106.59 32.72, 104.67 34.7 C102.75 36.67, 105.58 36.76, 95.68 37.24 C85.78 37.72, 61.36 37.58, 45.3 37.58 C29.24 37.58, 8.48 37.77, -0.68 37.24 C-9.84 36.7, -7.55 36.22, -9.67 34.36 C-11.79 32.5, -12.84 29.99, -13.4 26.07 C-13.97 22.15, -13.8 14.78, -13.06 10.83 C-12.33 6.88, -11.17 4.18, -8.99 2.37 C-6.81 0.56, -1.5 0.39, 0 0 M0 0 C7.46 0, 28.84 -0.06, 44.79 0 C60.73 0.06, 85.84 -0.08, 95.68 0.34 C105.52 0.76, 101.93 0.82, 103.82 2.54 C105.72 4.26, 106.48 6.86, 107.05 10.66 C107.61 14.47, 107.61 21.38, 107.22 25.39 C106.82 29.4, 106.59 32.72, 104.67 34.7 C102.75 36.67, 105.58 36.76, 95.68 37.24 C85.78 37.72, 61.36 37.58, 45.3 37.58 C29.24 37.58, 8.48 37.77, -0.68 37.24 C-9.84 36.7, -7.55 36.22, -9.67 34.36 C-11.79 32.5, -12.84 29.99, -13.4 26.07 C-13.97 22.15, -13.8 14.78, -13.06 10.83 C-12.33 6.88, -11.17 4.18, -8.99 2.37 C-6.81 0.56, -1.5 0.39, 0 0" stroke="#000000" stroke-width="1" fill="none"></path></g></g><g transform="translate(685.3799466387002 316.0171719095815) rotate(0 49 9)"><text x="0" y="15" font-family="Helvetica, Segoe UI Emoji" font-size="16px" fill="#ffff" text-anchor="start" style="white-space: pre;" direction="ltr">Report Image</text></g><g stroke-linecap="round"><g transform="translate(447.2591164999582 155.60001373291016) rotate(0 0 17.59996795654297)"><path d="M0 0 C0 5.87, 0 29.33, 0 35.2 M0 0 C0 5.87, 0 29.33, 0 35.2" stroke="#000000" stroke-width="2" fill="none"></path></g></g><g stroke-linecap="round"><g transform="translate(715.2591164999583 191.1999740600586) rotate(0 -254 0.4000091552734375)"><path d="M0 0 C-84.67 0.13, -423.33 0.67, -508 0.8 M0 0 C-84.67 0.13, -423.33 0.67, -508 0.8" stroke="#000000" stroke-width="2" fill="none"></path></g></g><g stroke-linecap="round"><g transform="translate(207.0591348105051 192.5999984741211) rotate(0 0.23529052734375 20.964705523322607)"><path d="M0 0 C0.08 6.99, 0.39 34.94, 0.47 41.93 M0 0 C0.08 6.99, 0.39 34.94, 0.47 41.93" stroke="#000000" stroke-width="2" fill="none"></path></g></g><g stroke-linecap="round"><g transform="translate(447.4591287069895 189.99999237060547) rotate(0 0.07060510971967915 18)"><path d="M0 0 C0.02 6, 0.12 30, 0.14 36 M0 0 C0.02 6, 0.12 30, 0.14 36" stroke="#000000" stroke-width="2" fill="none"></path></g></g><g stroke-linecap="round"><g transform="translate(715.859153121052 191.99999237060547) rotate(0 0.1646854176241277 17.199996948242188)"><path d="M0 0 C0.05 5.73, 0.27 28.67, 0.33 34.4 M0 0 C0.05 5.73, 0.27 28.67, 0.33 34.4" stroke="#000000" stroke-width="2" fill="none"></path></g></g></svg>